<svg width="132" height="133" viewBox="0 0 132 133" fill="none" xmlns="http://www.w3.org/2000/svg">
<rect y="0.506836" width="132" height="132" rx="20" fill="#333333"/>
<path d="M68.9062 108.788H63.0938C59.8823 108.788 57.2812 106.187 57.2812 102.976V97.1631H74.7188V102.976C74.7188 106.187 72.1177 108.788 68.9062 108.788Z" stroke="white" stroke-width="3" stroke-miterlimit="10" stroke-linejoin="round"/>
<path d="M86.3438 65.1943C86.3438 72.5123 82.8969 79.403 77.0437 83.7943L74.7188 85.5381V97.1631H57.2812V85.5381L54.9562 83.7943C49.1031 79.403 45.6562 72.5123 45.6562 65.1943C45.6562 53.9588 54.7644 44.8506 66 44.8506C77.2356 44.8506 86.3438 53.9588 86.3438 65.1943Z" stroke="white" stroke-width="3" stroke-miterlimit="10" stroke-linejoin="round"/>
<path d="M66 36.1318V24.5068" stroke="white" stroke-width="3" stroke-miterlimit="10" stroke-linejoin="round"/>
<path d="M45.4527 44.6443L37.231 36.4225" stroke="white" stroke-width="3" stroke-miterlimit="10" stroke-linejoin="round"/>
<path d="M86.5474 44.6443L94.7691 36.4225" stroke="white" stroke-width="3" stroke-miterlimit="10" stroke-linejoin="round"/>
<path d="M36.9375 65.1943H25.3125" stroke="white" stroke-width="3" stroke-miterlimit="10" stroke-linejoin="round"/>
<path d="M95.0625 65.1943H106.688" stroke="white" stroke-width="3" stroke-miterlimit="10" stroke-linejoin="round"/>
</svg>
