<svg width="132" height="132" viewBox="0 0 132 132" fill="none" xmlns="http://www.w3.org/2000/svg">
<rect width="132" height="132" rx="20" fill="#2C2B2B"/>
<g clip-path="url(#clip0_375_1812)">
<path d="M111.5 61.5605V19.0001H18.5V61.5605H47.6866V68.9896C47.6866 71.1804 45.9041 72.9626 43.7135 72.9626H38.0478C32.8106 72.9626 28.5498 77.2236 28.5498 82.4606V91.3868C28.5498 96.6241 32.8107 100.885 38.0478 100.885H50.449V95.3598H38.0478C35.857 95.3598 34.0748 93.5774 34.0748 91.3868V82.4606C34.0748 80.2699 35.8572 78.4876 38.0478 78.4876H43.7135C48.9508 78.4876 53.2115 74.2267 53.2115 68.9896V61.5605H76.7885V68.9896C76.7885 74.2269 81.0494 78.4876 86.2865 78.4876H91.9522C94.143 78.4876 95.9252 80.27 95.9252 82.4606V91.3868C95.9252 93.5776 94.1428 95.3598 91.9522 95.3598H79.5511V100.885H91.9522C97.1894 100.885 101.45 96.6239 101.45 91.3868V82.4606C101.45 77.2234 97.1893 72.9626 91.9522 72.9626H86.2865C84.0957 72.9626 82.3134 71.1802 82.3134 68.9896V61.5605H111.5ZM24.025 56.0356V24.5253H105.975V56.0357L24.025 56.0356Z" fill="#EEEEEE" fill-opacity="0.7"/>
<path d="M34.6804 46.4977H28.0137V52.0226H34.6804V46.4977Z" fill="#EEEEEE" fill-opacity="0.7"/>
<path d="M45.8982 46.4977H39.2314V52.0226H45.8982V46.4977Z" fill="#EEEEEE" fill-opacity="0.7"/>
<path d="M79.5511 46.4977H50.4492V52.0226H79.5511V46.4977Z" fill="#EEEEEE" fill-opacity="0.7"/>
<path d="M90.7683 46.4977H84.1016V52.0226H90.7683V46.4977Z" fill="#EEEEEE" fill-opacity="0.7"/>
<path d="M101.986 46.4977H95.3193V52.0226H101.986V46.4977Z" fill="#EEEEEE" fill-opacity="0.7"/>
<path d="M34.6804 37.5177H28.0137V43.0427H34.6804V37.5177Z" fill="#EEEEEE" fill-opacity="0.7"/>
<path d="M45.8982 37.5177H39.2314V43.0427H45.8982V37.5177Z" fill="#EEEEEE" fill-opacity="0.7"/>
<path d="M57.116 37.5177H50.4492V43.0427H57.116V37.5177Z" fill="#EEEEEE" fill-opacity="0.7"/>
<path d="M68.3333 37.5177H61.6665V43.0427H68.3333V37.5177Z" fill="#EEEEEE" fill-opacity="0.7"/>
<path d="M79.551 37.5177H72.8843V43.0427H79.551V37.5177Z" fill="#EEEEEE" fill-opacity="0.7"/>
<path d="M90.7683 37.5177H84.1016V43.0427H90.7683V37.5177Z" fill="#EEEEEE" fill-opacity="0.7"/>
<path d="M101.986 37.5177H95.3193V43.0427H101.986V37.5177Z" fill="#EEEEEE" fill-opacity="0.7"/>
<path d="M34.6804 28.538H28.0137V34.0629H34.6804V28.538Z" fill="#EEEEEE" fill-opacity="0.7"/>
<path d="M45.8982 28.538H39.2314V34.0629H45.8982V28.538Z" fill="#EEEEEE" fill-opacity="0.7"/>
<path d="M57.116 28.538H50.4492V34.0629H57.116V28.538Z" fill="#EEEEEE" fill-opacity="0.7"/>
<path d="M68.3333 28.538H61.6665V34.0629H68.3333V28.538Z" fill="#EEEEEE" fill-opacity="0.7"/>
<path d="M79.551 28.538H72.8843V34.0629H79.551V28.538Z" fill="#EEEEEE" fill-opacity="0.7"/>
<path d="M90.7683 28.538H84.1016V34.0629H90.7683V28.538Z" fill="#EEEEEE" fill-opacity="0.7"/>
<path d="M101.986 28.538H95.3193V34.0629H101.986V28.538Z" fill="#EEEEEE" fill-opacity="0.7"/>
<path d="M64.9999 73.0762C57.442 73.0762 51.293 79.2251 51.293 86.7831C51.293 90.4021 52.6907 93.8161 55.2284 96.3956L55.3977 96.5676C56.2334 97.452 56.8198 98.5277 57.1066 99.7025V103.719V104.107C57.1066 108.459 60.6475 112 64.9998 112C69.352 112 72.8929 108.459 72.8929 104.107V103.719V99.7025C73.1796 98.5289 73.7646 97.4545 74.5991 96.5708L74.7713 96.3957C77.3092 93.8161 78.7067 90.4025 78.7067 86.7833C78.7069 79.2253 72.5578 73.0762 64.9999 73.0762ZM67.3685 104.107H67.3683C67.3683 105.412 66.3059 106.475 65.0001 106.475C63.6943 106.475 62.6319 105.412 62.6319 104.107V103.719H67.3685V104.107ZM70.8875 92.4647L70.8517 92.5005C69.2623 94.0842 68.1383 96.0414 67.5758 98.1943H62.4243C61.8617 96.0415 60.7377 94.0842 59.1484 92.5005L59.1133 92.4654C57.6328 90.9325 56.8183 88.9174 56.8183 86.7831C56.8183 82.2715 60.4887 78.6011 65.0003 78.6011C69.5119 78.6011 73.1823 82.2715 73.1823 86.7831C73.1819 88.9174 72.3676 90.9318 70.8875 92.4647Z" fill="#EEEEEE" fill-opacity="0.7"/>
</g>
<defs>
<clipPath id="clip0_375_1812">
<rect width="93" height="93" fill="white" transform="translate(18.5 19)"/>
</clipPath>
</defs>
</svg>
