<svg width="133" height="133" viewBox="0 0 133 133" fill="none" xmlns="http://www.w3.org/2000/svg">
<rect x="0.101074" y="0.506836" width="132" height="132" rx="20" fill="#333333"/>
<mask id="path-2-inside-1_375_2020" fill="white">
<path fill-rule="evenodd" clip-rule="evenodd" d="M81.3722 82.3593L84.1235 80.5187C85.9835 79.2787 86.7778 76.9537 86.0803 74.8225C85.596 73.3887 84.4916 72.2262 83.0772 71.6837C81.6628 71.1412 80.0741 71.2575 78.7566 72.0131C76.141 73.505 72.5953 75.52 70.4447 76.76C68.6428 77.7868 67.5385 79.705 67.5385 81.7781V102.8C67.5385 103.866 68.4103 104.737 69.476 104.737C70.5416 104.737 71.4135 103.866 71.4135 102.8V81.7781C71.4135 81.1 71.7816 80.4606 72.3628 80.1312L80.6747 75.3843C80.9847 75.21 81.3528 75.1712 81.7016 75.3068C82.031 75.4425 82.3022 75.7137 82.3991 76.0431C82.5541 76.5081 82.3797 77.0118 81.9728 77.2831L78.0785 79.8793C77.536 80.2475 77.2066 80.8481 77.2066 81.4875V85.3625C77.2066 86.0018 77.536 86.6218 78.0785 86.9706C78.621 87.3387 79.2991 87.3968 79.8997 87.145C79.8997 87.145 86.0803 84.5681 89.4322 83.1731C91.3697 82.3593 92.7259 80.6156 93.0553 78.5425L94.2372 70.8312C94.3147 70.2693 94.8185 69.8431 95.3803 69.8431C95.7097 69.8431 96.0197 69.9787 96.2328 70.1918C96.4653 70.4243 96.5816 70.7343 96.5816 71.0443V85.3237C96.5816 86.9125 95.6516 88.3462 94.1984 89.005L82.5734 94.1781C80.4809 95.1081 79.1441 97.1812 79.1441 99.4481V102.761C79.1441 103.827 80.016 104.699 81.0816 104.699C82.1472 104.699 83.0191 103.827 83.0191 102.761V99.4481C83.0191 98.6925 83.4647 98.0143 84.1428 97.7237L95.7678 92.5506C98.616 91.2912 100.457 88.4625 100.457 85.3237V71.0443C100.457 69.6881 99.9141 68.39 98.9647 67.4406C98.0153 66.4912 96.7172 65.9487 95.361 65.9487C92.881 65.9487 90.7691 67.77 90.3816 70.2112C90.0328 72.4975 89.5291 75.7718 89.1997 77.9225C89.0835 78.6587 88.5991 79.2787 87.921 79.55L81.3528 82.2818L81.3722 82.3593ZM49.8297 82.3593L43.2616 79.6275C42.5835 79.3368 42.0991 78.7168 41.9828 78L40.801 70.2887C40.4328 67.8281 38.321 66.0262 35.8216 66.0262C34.4653 66.0262 33.1672 66.5687 32.2178 67.5181C31.2685 68.4675 30.726 69.7656 30.726 71.1218V85.4012C30.726 88.5206 32.5666 91.3493 35.4147 92.6281L47.0397 97.8012C47.7178 98.1112 48.1635 98.7893 48.1635 99.5256V102.839C48.1635 103.904 49.0353 104.776 50.101 104.776C51.1666 104.776 52.0385 103.904 52.0385 102.839V99.5256C52.0385 97.2393 50.7016 95.1856 48.6091 94.2556L36.9841 89.0825C35.531 88.4431 34.601 86.99 34.601 85.4012V71.1218C34.601 70.7925 34.7366 70.4825 34.9497 70.2693C35.1628 70.0562 35.4922 69.9206 35.8022 69.9206C36.3641 69.9206 36.8678 70.3468 36.9453 70.9087L38.1272 78.62C38.4372 80.6931 39.8128 82.4368 41.7503 83.2506C45.1022 84.6456 51.2828 87.2225 51.2828 87.2225C51.8835 87.4743 52.5616 87.3968 53.1041 87.0481C53.6466 86.68 53.976 86.0793 53.976 85.44V81.565C53.976 80.9256 53.6466 80.3056 53.1041 79.9568L49.2097 77.3606C48.8028 77.0893 48.6285 76.5856 48.7835 76.1206C48.8997 75.7912 49.1516 75.52 49.481 75.3843C49.8103 75.2487 50.1978 75.2875 50.5078 75.4618L58.8197 80.2087C59.401 80.5381 59.7691 81.1775 59.7691 81.8556V102.877C59.7691 103.943 60.641 104.815 61.7066 104.815C62.7722 104.815 63.6441 103.943 63.6441 102.877V81.8556C63.6441 79.7825 62.5397 77.8643 60.7378 76.8375C58.5678 75.5975 55.0222 73.5825 52.426 72.0906C51.1085 71.335 49.5197 71.2187 48.1053 71.7612C46.691 72.3037 45.5866 73.4468 45.1022 74.9C44.3853 77.0312 45.1991 79.3562 47.0591 80.5962L49.8103 82.4368L49.8297 82.3593ZM59.7885 54.3818C58.7228 54.3818 57.851 55.2537 57.851 56.3193C57.851 57.385 58.7228 58.2568 59.7885 58.2568C59.7885 61.4731 62.3847 64.0693 65.601 64.0693C68.8172 64.0693 71.4135 61.4731 71.4135 58.2568C72.4791 58.2568 73.351 57.385 73.351 56.3193C73.351 55.2537 72.4791 54.3818 71.4135 54.3818V53.0837C75.986 50.9137 79.1635 46.225 79.1635 40.8193C79.1635 33.3406 73.0797 27.2568 65.601 27.2568C58.1222 27.2568 52.0385 33.3406 52.0385 40.8193C52.0385 46.225 55.216 50.8943 59.7885 53.0837V54.3818ZM42.5835 37.9131C42.2735 37.4675 41.8085 37.1575 41.266 37.08C40.0647 36.9056 38.8247 36.9056 37.6235 37.08C37.081 37.1575 36.5966 37.4675 36.306 37.9131L35.3372 39.3468C35.3372 39.3468 35.221 39.405 35.1435 39.4243L33.4385 39.095C32.896 38.9981 32.3535 39.1143 31.9078 39.4437C30.9197 40.18 30.0672 41.0518 29.331 42.0206C29.0016 42.4662 28.8853 43.0087 28.9822 43.5512L29.3116 45.2562C29.3116 45.2562 29.2535 45.3725 29.2341 45.4306L27.8003 46.3993C27.3547 46.7093 27.0447 47.1743 26.9672 47.7168C26.7928 48.9181 26.7928 50.1581 26.9672 51.3593C27.0447 51.9018 27.3547 52.3862 27.8003 52.6768L29.2341 53.6456C29.2341 53.6456 29.2922 53.7618 29.3116 53.8393L28.9822 55.5443C28.8853 56.0868 28.9822 56.6293 29.331 57.075C30.0672 58.0631 30.9391 58.9156 31.9078 59.6518C32.3535 59.9812 32.896 60.0975 33.4385 60.0006L35.1435 59.6712C35.1435 59.6712 35.2597 59.7293 35.3178 59.7487L36.2866 61.1825C36.5966 61.6281 37.0616 61.9381 37.6041 62.0156C38.8053 62.19 40.0453 62.19 41.2466 62.0156C41.7891 61.9381 42.2735 61.6281 42.5641 61.1825L43.5328 59.7487C43.5328 59.7487 43.6491 59.6906 43.7266 59.6712L45.4316 60.0006C45.9741 60.0975 46.5166 59.9812 46.9622 59.6518C47.9503 58.9156 48.8028 58.0437 49.5391 57.075C49.8685 56.6293 49.9847 56.0868 49.8878 55.5443L49.5585 53.8393C49.5585 53.8393 49.6166 53.7231 49.636 53.665L51.0697 52.6962C51.5153 52.3862 51.8253 51.9212 51.9028 51.3787C52.0772 50.1775 52.0772 48.9375 51.9028 47.7362C51.8253 47.1937 51.5153 46.7093 51.0697 46.4187L49.636 45.45C49.636 45.45 49.5778 45.3337 49.5585 45.2562L49.8878 43.5512C49.9847 43.0087 49.8685 42.4662 49.5391 42.0206C48.8028 41.0325 47.931 40.18 46.9622 39.4437C46.5166 39.1143 45.9741 38.9981 45.4316 39.095L43.7266 39.4243C43.7266 39.4243 43.6103 39.3662 43.5522 39.3468L42.5835 37.9131ZM67.5385 58.2568C67.5385 59.3225 66.6666 60.1943 65.601 60.1943C64.5353 60.1943 63.6635 59.3225 63.6635 58.2568H67.5385ZM94.4116 37.9325C94.0628 37.3125 93.4235 36.9443 92.726 36.9443C92.0285 36.9443 91.3697 37.3318 91.0403 37.9325L88.1728 43.0862L82.6316 44.3456C81.9728 44.5006 81.4303 44.985 81.2172 45.6243C81.0041 46.2637 81.1397 46.9806 81.5853 47.4843L85.4022 51.96L84.8209 57.9468C84.7628 58.6443 85.0535 59.3031 85.6347 59.71C86.1966 60.1168 86.9328 60.175 87.5722 59.8843L92.7453 57.5012L97.9185 59.8843C98.5385 60.175 99.2941 60.0975 99.856 59.71C100.418 59.3031 100.728 58.6443 100.67 57.9468L100.088 51.96L103.905 47.4843C104.351 46.9612 104.487 46.2637 104.273 45.6243C104.06 44.985 103.518 44.5006 102.859 44.3456L97.3178 43.0862L94.4503 37.9325H94.4116ZM39.8903 40.8193L40.7041 42.0206C40.9366 42.3693 41.2853 42.6406 41.6922 42.7762C42.0216 42.8731 42.3316 43.0087 42.6416 43.1637C43.0291 43.3575 43.4553 43.4156 43.8816 43.3381L45.296 43.0668C45.5091 43.2606 45.7222 43.4737 45.916 43.6868L45.6447 45.1012C45.5672 45.5275 45.6447 45.9537 45.8191 46.3412C45.9741 46.6512 46.1097 46.9612 46.2066 47.2906C46.3422 47.6975 46.6135 48.0462 46.9622 48.2787L48.1635 49.0925C48.1635 49.3831 48.1635 49.6931 48.1635 49.9837L46.9622 50.7975C46.6135 51.03 46.3422 51.3787 46.2066 51.7856C46.1097 52.115 45.9741 52.425 45.8191 52.735C45.6253 53.1225 45.5672 53.5487 45.6447 53.975L45.916 55.3893C45.7222 55.6025 45.5091 55.8156 45.296 56.0093L43.8816 55.7381C43.4553 55.6606 43.0291 55.7381 42.6416 55.9125C42.3316 56.0675 42.0216 56.2031 41.6922 56.3C41.2853 56.4356 40.9366 56.7068 40.7041 57.0556L39.8903 58.2568C39.5997 58.2568 39.2897 58.2568 38.9991 58.2568L38.1853 57.0556C37.9528 56.7068 37.6041 56.4356 37.1972 56.3C36.8678 56.2031 36.5578 56.0675 36.2478 55.9125C35.8603 55.7187 35.4341 55.6606 35.0078 55.7381L33.5935 56.0093C33.3803 55.8156 33.1672 55.6025 32.9735 55.3893L33.2447 53.975C33.3222 53.5487 33.2641 53.1225 33.0703 52.735C32.9153 52.425 32.7797 52.115 32.6828 51.7856C32.5472 51.3787 32.276 51.03 31.9272 50.7975L30.726 49.9837C30.726 49.6931 30.726 49.3831 30.726 49.0925L31.9272 48.2787C32.276 48.0462 32.5472 47.6975 32.6828 47.2906C32.7797 46.9612 32.9153 46.6512 33.0703 46.3412C33.2641 45.9537 33.3222 45.5275 33.2447 45.1012L32.9735 43.6868C33.1672 43.4737 33.3803 43.2606 33.5935 43.0668L35.0078 43.3381C35.4341 43.4156 35.8603 43.3575 36.2478 43.1637C36.5578 43.0087 36.8678 42.8731 37.1972 42.7762C37.6041 42.6406 37.9528 42.3693 38.1853 42.0206L38.9991 40.8193H39.8903ZM92.726 42.8537L94.3341 45.7212C94.6053 46.2056 95.0703 46.5543 95.5935 46.6706L98.8678 47.4068L96.601 50.0806C96.2522 50.4875 96.0972 50.9912 96.1359 51.5337L96.4653 54.9825L93.5397 53.6262C93.0166 53.3937 92.4353 53.3937 91.9122 53.6262L88.9866 54.9825L89.316 51.5337C89.3741 51.0106 89.1997 50.4875 88.851 50.0806L86.5841 47.4068L89.8585 46.6706C90.401 46.5543 90.8466 46.2056 91.1178 45.7212L92.726 42.8537ZM39.4447 44.675C36.771 44.675 34.601 46.845 34.601 49.5187C34.601 52.1925 36.771 54.3625 39.4447 54.3625C42.1185 54.3625 44.2885 52.1925 44.2885 49.5187C44.2885 46.845 42.1185 44.675 39.4447 44.675ZM67.5385 54.3625H63.6635V51.7662C63.6635 50.9525 63.1403 50.2162 62.3653 49.945C58.6066 48.6081 55.9135 45.0237 55.9135 40.8C55.9135 35.4525 60.2535 31.1125 65.601 31.1125C70.9485 31.1125 75.2885 35.4525 75.2885 40.8C75.2885 45.0237 72.5953 48.6081 68.8366 49.945C68.0616 50.2162 67.5385 50.9525 67.5385 51.7662V54.3625ZM39.4447 48.55C39.9872 48.55 40.4135 48.9762 40.4135 49.5187C40.4135 50.0612 39.9872 50.4875 39.4447 50.4875C38.9022 50.4875 38.476 50.0612 38.476 49.5187C38.476 48.9762 38.9022 48.55 39.4447 48.55ZM63.6635 43.2993V46.6125C63.6635 47.6781 64.5353 48.55 65.601 48.55C66.6666 48.55 67.5385 47.6781 67.5385 46.6125V43.2993C69.2435 42.5437 70.4447 40.8387 70.4447 38.8625C70.4447 36.1887 68.2747 34.0187 65.601 34.0187C62.9272 34.0187 60.7572 36.1887 60.7572 38.8625C60.7572 40.8387 61.9585 42.5631 63.6635 43.2993ZM65.601 37.8937C66.1435 37.8937 66.5697 38.32 66.5697 38.8625C66.5697 39.405 66.1435 39.8312 65.601 39.8312C65.0585 39.8312 64.6322 39.405 64.6322 38.8625C64.6322 38.32 65.0585 37.8937 65.601 37.8937Z"/>
</mask>
<path fill-rule="evenodd" clip-rule="evenodd" d="M81.3722 82.3593L84.1235 80.5187C85.9835 79.2787 86.7778 76.9537 86.0803 74.8225C85.596 73.3887 84.4916 72.2262 83.0772 71.6837C81.6628 71.1412 80.0741 71.2575 78.7566 72.0131C76.141 73.505 72.5953 75.52 70.4447 76.76C68.6428 77.7868 67.5385 79.705 67.5385 81.7781V102.8C67.5385 103.866 68.4103 104.737 69.476 104.737C70.5416 104.737 71.4135 103.866 71.4135 102.8V81.7781C71.4135 81.1 71.7816 80.4606 72.3628 80.1312L80.6747 75.3843C80.9847 75.21 81.3528 75.1712 81.7016 75.3068C82.031 75.4425 82.3022 75.7137 82.3991 76.0431C82.5541 76.5081 82.3797 77.0118 81.9728 77.2831L78.0785 79.8793C77.536 80.2475 77.2066 80.8481 77.2066 81.4875V85.3625C77.2066 86.0018 77.536 86.6218 78.0785 86.9706C78.621 87.3387 79.2991 87.3968 79.8997 87.145C79.8997 87.145 86.0803 84.5681 89.4322 83.1731C91.3697 82.3593 92.7259 80.6156 93.0553 78.5425L94.2372 70.8312C94.3147 70.2693 94.8185 69.8431 95.3803 69.8431C95.7097 69.8431 96.0197 69.9787 96.2328 70.1918C96.4653 70.4243 96.5816 70.7343 96.5816 71.0443V85.3237C96.5816 86.9125 95.6516 88.3462 94.1984 89.005L82.5734 94.1781C80.4809 95.1081 79.1441 97.1812 79.1441 99.4481V102.761C79.1441 103.827 80.016 104.699 81.0816 104.699C82.1472 104.699 83.0191 103.827 83.0191 102.761V99.4481C83.0191 98.6925 83.4647 98.0143 84.1428 97.7237L95.7678 92.5506C98.616 91.2912 100.457 88.4625 100.457 85.3237V71.0443C100.457 69.6881 99.9141 68.39 98.9647 67.4406C98.0153 66.4912 96.7172 65.9487 95.361 65.9487C92.881 65.9487 90.7691 67.77 90.3816 70.2112C90.0328 72.4975 89.5291 75.7718 89.1997 77.9225C89.0835 78.6587 88.5991 79.2787 87.921 79.55L81.3528 82.2818L81.3722 82.3593ZM49.8297 82.3593L43.2616 79.6275C42.5835 79.3368 42.0991 78.7168 41.9828 78L40.801 70.2887C40.4328 67.8281 38.321 66.0262 35.8216 66.0262C34.4653 66.0262 33.1672 66.5687 32.2178 67.5181C31.2685 68.4675 30.726 69.7656 30.726 71.1218V85.4012C30.726 88.5206 32.5666 91.3493 35.4147 92.6281L47.0397 97.8012C47.7178 98.1112 48.1635 98.7893 48.1635 99.5256V102.839C48.1635 103.904 49.0353 104.776 50.101 104.776C51.1666 104.776 52.0385 103.904 52.0385 102.839V99.5256C52.0385 97.2393 50.7016 95.1856 48.6091 94.2556L36.9841 89.0825C35.531 88.4431 34.601 86.99 34.601 85.4012V71.1218C34.601 70.7925 34.7366 70.4825 34.9497 70.2693C35.1628 70.0562 35.4922 69.9206 35.8022 69.9206C36.3641 69.9206 36.8678 70.3468 36.9453 70.9087L38.1272 78.62C38.4372 80.6931 39.8128 82.4368 41.7503 83.2506C45.1022 84.6456 51.2828 87.2225 51.2828 87.2225C51.8835 87.4743 52.5616 87.3968 53.1041 87.0481C53.6466 86.68 53.976 86.0793 53.976 85.44V81.565C53.976 80.9256 53.6466 80.3056 53.1041 79.9568L49.2097 77.3606C48.8028 77.0893 48.6285 76.5856 48.7835 76.1206C48.8997 75.7912 49.1516 75.52 49.481 75.3843C49.8103 75.2487 50.1978 75.2875 50.5078 75.4618L58.8197 80.2087C59.401 80.5381 59.7691 81.1775 59.7691 81.8556V102.877C59.7691 103.943 60.641 104.815 61.7066 104.815C62.7722 104.815 63.6441 103.943 63.6441 102.877V81.8556C63.6441 79.7825 62.5397 77.8643 60.7378 76.8375C58.5678 75.5975 55.0222 73.5825 52.426 72.0906C51.1085 71.335 49.5197 71.2187 48.1053 71.7612C46.691 72.3037 45.5866 73.4468 45.1022 74.9C44.3853 77.0312 45.1991 79.3562 47.0591 80.5962L49.8103 82.4368L49.8297 82.3593ZM59.7885 54.3818C58.7228 54.3818 57.851 55.2537 57.851 56.3193C57.851 57.385 58.7228 58.2568 59.7885 58.2568C59.7885 61.4731 62.3847 64.0693 65.601 64.0693C68.8172 64.0693 71.4135 61.4731 71.4135 58.2568C72.4791 58.2568 73.351 57.385 73.351 56.3193C73.351 55.2537 72.4791 54.3818 71.4135 54.3818V53.0837C75.986 50.9137 79.1635 46.225 79.1635 40.8193C79.1635 33.3406 73.0797 27.2568 65.601 27.2568C58.1222 27.2568 52.0385 33.3406 52.0385 40.8193C52.0385 46.225 55.216 50.8943 59.7885 53.0837V54.3818ZM42.5835 37.9131C42.2735 37.4675 41.8085 37.1575 41.266 37.08C40.0647 36.9056 38.8247 36.9056 37.6235 37.08C37.081 37.1575 36.5966 37.4675 36.306 37.9131L35.3372 39.3468C35.3372 39.3468 35.221 39.405 35.1435 39.4243L33.4385 39.095C32.896 38.9981 32.3535 39.1143 31.9078 39.4437C30.9197 40.18 30.0672 41.0518 29.331 42.0206C29.0016 42.4662 28.8853 43.0087 28.9822 43.5512L29.3116 45.2562C29.3116 45.2562 29.2535 45.3725 29.2341 45.4306L27.8003 46.3993C27.3547 46.7093 27.0447 47.1743 26.9672 47.7168C26.7928 48.9181 26.7928 50.1581 26.9672 51.3593C27.0447 51.9018 27.3547 52.3862 27.8003 52.6768L29.2341 53.6456C29.2341 53.6456 29.2922 53.7618 29.3116 53.8393L28.9822 55.5443C28.8853 56.0868 28.9822 56.6293 29.331 57.075C30.0672 58.0631 30.9391 58.9156 31.9078 59.6518C32.3535 59.9812 32.896 60.0975 33.4385 60.0006L35.1435 59.6712C35.1435 59.6712 35.2597 59.7293 35.3178 59.7487L36.2866 61.1825C36.5966 61.6281 37.0616 61.9381 37.6041 62.0156C38.8053 62.19 40.0453 62.19 41.2466 62.0156C41.7891 61.9381 42.2735 61.6281 42.5641 61.1825L43.5328 59.7487C43.5328 59.7487 43.6491 59.6906 43.7266 59.6712L45.4316 60.0006C45.9741 60.0975 46.5166 59.9812 46.9622 59.6518C47.9503 58.9156 48.8028 58.0437 49.5391 57.075C49.8685 56.6293 49.9847 56.0868 49.8878 55.5443L49.5585 53.8393C49.5585 53.8393 49.6166 53.7231 49.636 53.665L51.0697 52.6962C51.5153 52.3862 51.8253 51.9212 51.9028 51.3787C52.0772 50.1775 52.0772 48.9375 51.9028 47.7362C51.8253 47.1937 51.5153 46.7093 51.0697 46.4187L49.636 45.45C49.636 45.45 49.5778 45.3337 49.5585 45.2562L49.8878 43.5512C49.9847 43.0087 49.8685 42.4662 49.5391 42.0206C48.8028 41.0325 47.931 40.18 46.9622 39.4437C46.5166 39.1143 45.9741 38.9981 45.4316 39.095L43.7266 39.4243C43.7266 39.4243 43.6103 39.3662 43.5522 39.3468L42.5835 37.9131ZM67.5385 58.2568C67.5385 59.3225 66.6666 60.1943 65.601 60.1943C64.5353 60.1943 63.6635 59.3225 63.6635 58.2568H67.5385ZM94.4116 37.9325C94.0628 37.3125 93.4235 36.9443 92.726 36.9443C92.0285 36.9443 91.3697 37.3318 91.0403 37.9325L88.1728 43.0862L82.6316 44.3456C81.9728 44.5006 81.4303 44.985 81.2172 45.6243C81.0041 46.2637 81.1397 46.9806 81.5853 47.4843L85.4022 51.96L84.8209 57.9468C84.7628 58.6443 85.0535 59.3031 85.6347 59.71C86.1966 60.1168 86.9328 60.175 87.5722 59.8843L92.7453 57.5012L97.9185 59.8843C98.5385 60.175 99.2941 60.0975 99.856 59.71C100.418 59.3031 100.728 58.6443 100.67 57.9468L100.088 51.96L103.905 47.4843C104.351 46.9612 104.487 46.2637 104.273 45.6243C104.06 44.985 103.518 44.5006 102.859 44.3456L97.3178 43.0862L94.4503 37.9325H94.4116ZM39.8903 40.8193L40.7041 42.0206C40.9366 42.3693 41.2853 42.6406 41.6922 42.7762C42.0216 42.8731 42.3316 43.0087 42.6416 43.1637C43.0291 43.3575 43.4553 43.4156 43.8816 43.3381L45.296 43.0668C45.5091 43.2606 45.7222 43.4737 45.916 43.6868L45.6447 45.1012C45.5672 45.5275 45.6447 45.9537 45.8191 46.3412C45.9741 46.6512 46.1097 46.9612 46.2066 47.2906C46.3422 47.6975 46.6135 48.0462 46.9622 48.2787L48.1635 49.0925C48.1635 49.3831 48.1635 49.6931 48.1635 49.9837L46.9622 50.7975C46.6135 51.03 46.3422 51.3787 46.2066 51.7856C46.1097 52.115 45.9741 52.425 45.8191 52.735C45.6253 53.1225 45.5672 53.5487 45.6447 53.975L45.916 55.3893C45.7222 55.6025 45.5091 55.8156 45.296 56.0093L43.8816 55.7381C43.4553 55.6606 43.0291 55.7381 42.6416 55.9125C42.3316 56.0675 42.0216 56.2031 41.6922 56.3C41.2853 56.4356 40.9366 56.7068 40.7041 57.0556L39.8903 58.2568C39.5997 58.2568 39.2897 58.2568 38.9991 58.2568L38.1853 57.0556C37.9528 56.7068 37.6041 56.4356 37.1972 56.3C36.8678 56.2031 36.5578 56.0675 36.2478 55.9125C35.8603 55.7187 35.4341 55.6606 35.0078 55.7381L33.5935 56.0093C33.3803 55.8156 33.1672 55.6025 32.9735 55.3893L33.2447 53.975C33.3222 53.5487 33.2641 53.1225 33.0703 52.735C32.9153 52.425 32.7797 52.115 32.6828 51.7856C32.5472 51.3787 32.276 51.03 31.9272 50.7975L30.726 49.9837C30.726 49.6931 30.726 49.3831 30.726 49.0925L31.9272 48.2787C32.276 48.0462 32.5472 47.6975 32.6828 47.2906C32.7797 46.9612 32.9153 46.6512 33.0703 46.3412C33.2641 45.9537 33.3222 45.5275 33.2447 45.1012L32.9735 43.6868C33.1672 43.4737 33.3803 43.2606 33.5935 43.0668L35.0078 43.3381C35.4341 43.4156 35.8603 43.3575 36.2478 43.1637C36.5578 43.0087 36.8678 42.8731 37.1972 42.7762C37.6041 42.6406 37.9528 42.3693 38.1853 42.0206L38.9991 40.8193H39.8903ZM92.726 42.8537L94.3341 45.7212C94.6053 46.2056 95.0703 46.5543 95.5935 46.6706L98.8678 47.4068L96.601 50.0806C96.2522 50.4875 96.0972 50.9912 96.1359 51.5337L96.4653 54.9825L93.5397 53.6262C93.0166 53.3937 92.4353 53.3937 91.9122 53.6262L88.9866 54.9825L89.316 51.5337C89.3741 51.0106 89.1997 50.4875 88.851 50.0806L86.5841 47.4068L89.8585 46.6706C90.401 46.5543 90.8466 46.2056 91.1178 45.7212L92.726 42.8537ZM39.4447 44.675C36.771 44.675 34.601 46.845 34.601 49.5187C34.601 52.1925 36.771 54.3625 39.4447 54.3625C42.1185 54.3625 44.2885 52.1925 44.2885 49.5187C44.2885 46.845 42.1185 44.675 39.4447 44.675ZM67.5385 54.3625H63.6635V51.7662C63.6635 50.9525 63.1403 50.2162 62.3653 49.945C58.6066 48.6081 55.9135 45.0237 55.9135 40.8C55.9135 35.4525 60.2535 31.1125 65.601 31.1125C70.9485 31.1125 75.2885 35.4525 75.2885 40.8C75.2885 45.0237 72.5953 48.6081 68.8366 49.945C68.0616 50.2162 67.5385 50.9525 67.5385 51.7662V54.3625ZM39.4447 48.55C39.9872 48.55 40.4135 48.9762 40.4135 49.5187C40.4135 50.0612 39.9872 50.4875 39.4447 50.4875C38.9022 50.4875 38.476 50.0612 38.476 49.5187C38.476 48.9762 38.9022 48.55 39.4447 48.55ZM63.6635 43.2993V46.6125C63.6635 47.6781 64.5353 48.55 65.601 48.55C66.6666 48.55 67.5385 47.6781 67.5385 46.6125V43.2993C69.2435 42.5437 70.4447 40.8387 70.4447 38.8625C70.4447 36.1887 68.2747 34.0187 65.601 34.0187C62.9272 34.0187 60.7572 36.1887 60.7572 38.8625C60.7572 40.8387 61.9585 42.5631 63.6635 43.2993ZM65.601 37.8937C66.1435 37.8937 66.5697 38.32 66.5697 38.8625C66.5697 39.405 66.1435 39.8312 65.601 39.8312C65.0585 39.8312 64.6322 39.405 64.6322 38.8625C64.6322 38.32 65.0585 37.8937 65.601 37.8937Z" fill="white" stroke="#3C3939" stroke-width="2" mask="url(#path-2-inside-1_375_2020)"/>
</svg>
