<?xml version="1.0" standalone="no"?>
<!DOCTYPE svg PUBLIC "-//W3C//DTD SVG 20010904//EN"
 "http://www.w3.org/TR/2001/REC-SVG-20010904/DTD/svg10.dtd">
<svg version="1.0" xmlns="http://www.w3.org/2000/svg"
 width="502.000000pt" height="586.000000pt" viewBox="0 0 502.000000 586.000000"
 preserveAspectRatio="xMidYMid meet">

<g transform="translate(0.000000,586.000000) scale(0.100000,-0.100000)"
fill="#000000" stroke="none">
<path d="M886 5846 c3 -8 0 -24 -6 -36 -9 -17 -8 -26 4 -45 33 -51 19 -108
-46 -176 -37 -41 -52 -79 -29 -79 16 0 42 -63 43 -103 0 -23 6 -49 13 -57 15
-18 27 -62 15 -55 -14 8 -33 -34 -24 -53 4 -9 6 -21 5 -27 -6 -20 -30 -121
-36 -149 -8 -35 -72 -99 -117 -116 -60 -22 -63 -25 -62 -72 0 -38 6 -50 42
-86 47 -47 66 -84 63 -123 -3 -41 20 -52 52 -24 20 17 30 37 36 73 12 80 76
124 125 87 21 -16 72 -20 78 -7 2 4 26 19 53 33 55 28 57 35 30 108 -27 73
-34 133 -26 215 5 57 4 82 -6 94 -17 23 -17 222 1 287 7 28 21 65 31 84 9 19
19 55 22 79 5 44 26 90 49 104 6 4 9 19 6 33 l-4 25 -159 0 c-133 0 -157 -2
-153 -14z"/>
<path d="M2240 5851 c0 -5 7 -28 15 -51 16 -46 11 -84 -15 -115 -26 -31 -30
-41 -40 -101 -9 -55 -29 -85 -105 -164 -14 -14 -25 -31 -25 -38 0 -6 -6 -11
-12 -10 -7 2 -12 -3 -10 -11 2 -8 -3 -11 -13 -8 -9 4 -20 -1 -27 -13 -7 -11
-18 -20 -24 -20 -6 0 -32 -11 -58 -25 -26 -14 -53 -25 -60 -25 -7 0 -28 -18
-47 -40 -19 -22 -49 -49 -67 -60 -18 -11 -37 -31 -44 -45 -6 -14 -19 -25 -28
-25 -10 0 -26 -11 -36 -25 -10 -14 -42 -37 -71 -51 -28 -15 -54 -33 -57 -40
-3 -8 -11 -14 -18 -14 -7 0 -26 -14 -42 -30 -16 -17 -35 -30 -42 -30 -7 0 -14
-3 -16 -7 -4 -10 -53 -43 -91 -63 -26 -13 -27 -15 -11 -27 10 -7 28 -13 42
-13 18 0 23 -5 20 -22 -2 -13 -11 -32 -21 -43 -10 -11 -20 -31 -23 -45 -7 -35
-75 -170 -86 -170 -4 0 -8 -4 -8 -10 0 -14 27 -13 32 1 2 7 4 -5 5 -25 1 -20
-3 -39 -8 -42 -5 -3 -2 -12 6 -20 17 -17 6 -34 -28 -47 -16 -6 -17 -9 -4 -22
10 -10 14 -29 12 -57 -2 -24 -4 -53 -4 -66 -1 -14 -10 -26 -23 -32 -18 -7 -19
-9 -5 -9 13 -1 17 -10 17 -45 0 -26 6 -48 15 -56 8 -7 15 -19 15 -28 0 -8 7
-23 15 -32 8 -9 15 -29 16 -45 3 -37 -35 -174 -63 -232 -19 -39 -19 -44 -5
-66 11 -17 29 -26 58 -31 82 -13 82 -14 87 -203 3 -147 7 -182 33 -279 31
-117 34 -135 22 -132 -9 1 -59 -17 -83 -31 -9 -4 -38 -9 -65 -9 -79 -2 -90
-21 -120 -212 -6 -43 -74 -125 -119 -143 -64 -28 -102 -39 -121 -38 -62 5
-120 -1 -127 -14 -11 -18 -110 -75 -134 -76 -11 0 -37 -11 -59 -24 -59 -35
-86 -46 -125 -50 -19 -2 -36 -8 -38 -14 -2 -6 -16 -11 -31 -11 -15 0 -32 -5
-39 -12 -9 -9 -12 -9 -12 -1 0 7 5 15 12 19 8 5 4 11 -14 18 -28 12 -118 107
-118 125 0 6 -7 11 -15 11 -8 0 -17 12 -21 28 -3 15 -10 39 -16 54 -20 54 35
148 108 183 50 23 255 25 314 2 62 -24 120 -31 154 -17 27 10 28 13 22 57 -3
26 -11 50 -17 53 -14 9 -45 135 -59 245 -7 50 -20 144 -30 210 -10 66 -18 127
-18 135 0 8 -8 58 -18 110 -13 66 -18 143 -19 255 -1 275 -33 453 -82 455 -6
0 -13 -5 -15 -12 -3 -8 -32 -13 -84 -14 -75 -1 -158 -22 -239 -59 -34 -15
-115 -20 -157 -10 l-28 7 0 -1331 c0 -1157 2 -1331 15 -1331 14 0 46 12 92 33
24 11 58 3 49 -12 -7 -11 23 -21 99 -35 43 -8 85 30 92 83 5 34 3 41 -11 41
-9 0 -16 5 -16 10 0 6 -20 19 -44 30 -24 10 -47 24 -52 31 -4 7 -7 62 -6 121
2 88 -1 110 -13 114 -8 3 -19 22 -24 41 -8 28 -7 41 6 60 12 18 13 27 4 36
-18 18 -13 44 14 61 14 10 30 27 35 39 25 56 70 104 119 124 31 13 41 13 91 0
30 -9 75 -21 99 -27 35 -9 60 -28 117 -86 39 -41 76 -74 81 -74 5 0 15 -16 23
-35 8 -19 17 -35 22 -35 4 0 8 -7 8 -15 0 -19 36 -91 61 -124 11 -13 19 -32
19 -43 0 -31 68 -83 114 -86 23 -2 43 -6 45 -8 2 -2 0 -18 -5 -36 -8 -27 -23
-40 -89 -76 -148 -82 -347 -204 -539 -331 -105 -69 -239 -155 -299 -191 l-107
-65 0 -572 0 -573 2510 0 2510 0 0 804 0 803 -26 48 c-22 42 -24 52 -13 76 6
16 17 34 25 40 10 8 14 39 14 114 l0 103 -107 87 c-60 48 -130 98 -156 111
-27 14 -84 59 -128 99 -91 85 -169 140 -260 185 -35 17 -71 35 -79 39 -8 4
-27 39 -42 77 -33 80 -93 143 -179 186 -30 15 -47 27 -39 28 13 0 13 1 0 11
-11 8 -9 8 10 3 14 -4 43 -7 65 -6 22 0 91 -4 153 -9 62 -5 124 -6 137 -3 23
6 75 75 75 100 0 14 -90 80 -120 89 -14 4 -47 18 -74 31 -28 13 -62 24 -76 24
-37 0 -57 19 -70 67 -10 38 -8 46 12 73 12 16 30 30 40 30 21 0 34 23 41 73 3
20 10 44 17 52 7 8 9 22 6 31 -4 10 0 21 10 29 12 8 14 18 8 36 -4 13 -7 27
-6 32 1 4 -4 7 -11 7 -24 0 -66 50 -73 87 -4 20 1 100 10 177 9 78 18 214 19
304 2 149 0 165 -16 177 -21 15 -47 10 -47 -10 0 -22 -34 -75 -49 -75 -11 0
-11 -3 -1 -15 15 -18 8 -63 -20 -120 -10 -22 -22 -74 -25 -115 -4 -41 -11 -82
-16 -92 -5 -9 -9 -30 -9 -46 0 -28 -3 -30 -46 -37 -25 -3 -47 -5 -48 -3 -2 2
5 41 14 88 13 61 14 87 6 92 -8 6 -7 8 1 8 7 0 10 7 7 15 -4 8 -3 23 2 33 4 9
8 22 9 27 0 6 6 9 13 7 7 -1 13 4 13 10 1 7 2 18 4 23 1 6 3 17 3 26 1 8 10
24 20 35 10 11 18 35 18 59 1 22 7 54 14 70 7 17 14 35 14 40 1 6 5 19 9 31 7
19 -6 52 -58 155 -5 10 -18 19 -27 19 -11 0 -15 5 -12 15 4 8 1 22 -6 30 -11
14 -9 39 7 81 4 12 3 15 -5 10 -7 -4 -12 -1 -12 8 0 9 5 16 10 16 6 0 10 5 10
11 0 6 -9 9 -20 6 -18 -5 -25 3 -21 26 0 4 -6 7 -15 7 -12 0 -15 7 -11 26 4
23 2 25 -19 20 -13 -4 -26 -1 -30 6 -5 7 -2 9 8 6 12 -5 15 1 14 25 -1 33 -16
57 -36 57 -7 0 -9 7 -6 16 4 11 1 14 -13 9 -10 -3 -24 1 -31 10 -7 8 -10 15
-6 15 3 0 -3 15 -14 33 -11 17 -20 39 -20 47 0 8 -9 32 -20 53 -11 20 -20 41
-20 45 0 5 19 14 43 21 77 23 100 66 51 98 -35 23 -116 23 -141 0 -19 -17 -22
-16 -79 14 -32 17 -66 37 -74 43 -8 7 -30 19 -48 26 -19 7 -40 19 -47 26 -7 7
-23 15 -36 16 -13 2 -41 12 -63 23 -21 10 -50 19 -65 21 -43 4 -116 20 -128
27 -6 4 -14 3 -17 -2 -4 -6 -18 -6 -38 0 -18 5 -42 6 -53 3 -17 -4 -17 -3 -5
6 12 9 10 10 -12 6 -17 -4 -32 -1 -43 10 -9 9 -19 14 -22 10 -3 -3 -12 -1 -19
5 -11 9 -4 23 37 73 28 33 67 74 87 90 42 32 144 81 215 103 65 19 130 69 157
119 12 23 33 48 47 55 13 7 29 21 34 31 9 17 -13 18 -492 18 -434 0 -500 -2
-490 -14 10 -12 8 -18 -11 -29 -49 -31 -72 -29 -107 8 -31 33 -37 35 -97 35
-35 0 -64 -4 -64 -9z m420 -856 c0 -8 3 -15 6 -15 3 0 12 7 20 15 23 22 42 18
75 -14 26 -26 33 -29 31 -10 -1 11 63 -4 80 -18 22 -20 50 -10 41 14 -4 13 -3
15 5 8 6 -6 13 -22 15 -35 3 -19 10 -24 27 -22 12 1 33 -7 47 -18 31 -24 66
-87 59 -106 -3 -7 1 -17 9 -21 10 -6 11 -19 5 -53 -4 -25 -6 -48 -4 -52 3 -5
0 -8 -5 -8 -6 0 -11 -7 -11 -15 0 -8 -4 -15 -10 -15 -16 0 -11 -19 10 -37 22
-19 26 -48 10 -58 -8 -5 -8 -11 -1 -19 6 -7 8 -16 4 -19 -3 -4 -1 -12 5 -20 6
-7 13 -24 16 -37 2 -14 8 -34 12 -45 5 -14 1 -12 -15 8 -13 15 -27 24 -33 21
-7 -5 -4 -13 10 -24 11 -10 24 -30 28 -45 6 -25 5 -28 -15 -22 -24 6 -29 -10
-6 -19 8 -4 15 -12 15 -20 0 -8 5 -14 10 -14 6 0 10 5 10 11 0 6 7 3 16 -5 18
-18 28 -21 19 -5 -4 5 -9 25 -12 42 -5 32 -5 32 16 13 19 -17 21 -17 21 -3 0
24 17 21 23 -3 3 -11 12 -20 21 -20 9 0 16 -8 16 -17 0 -15 2 -15 9 -4 15 23
59 -11 57 -44 -1 -30 -26 -34 -33 -5 -5 18 -8 19 -22 7 -9 -8 -23 -17 -31 -20
-10 -4 -8 -6 7 -6 12 -1 25 -6 29 -12 3 -6 15 -9 25 -6 11 3 19 0 19 -5 0 -7
-17 -8 -46 -4 -40 5 -45 4 -34 -9 9 -10 9 -15 1 -15 -6 0 -14 0 -18 0 -5 0 -8
5 -8 10 0 6 -3 10 -7 10 -5 0 -20 0 -34 0 -21 0 -24 -3 -19 -21 5 -13 3 -19
-3 -15 -5 3 -12 -4 -15 -15 -3 -13 -10 -18 -17 -14 -7 4 -10 16 -7 26 3 12 0
19 -10 19 -8 0 -12 4 -8 9 7 12 -29 33 -39 24 -3 -3 -6 -14 -6 -24 0 -9 -6
-19 -12 -22 -7 -2 -10 -8 -6 -12 4 -4 21 -3 37 3 17 6 31 7 31 2 0 -11 -20
-24 -45 -27 -10 -2 -22 -8 -26 -14 -4 -8 -8 -8 -13 -1 -9 15 -63 9 -106 -11
-47 -21 -112 -27 -106 -10 3 7 2 13 -3 13 -5 0 -11 -10 -14 -22 -5 -17 -9 -19
-20 -10 -13 11 -60 9 -97 -5 -26 -10 -54 -11 -77 -2 -14 5 -24 4 -27 -4 -5 -9
-7 -9 -12 1 -3 6 -12 12 -20 12 -8 0 -11 6 -7 18 5 13 1 12 -16 -5 -25 -27
-33 -29 -25 -8 4 8 1 15 -5 15 -6 0 -11 5 -11 11 0 5 5 7 10 4 6 -3 10 -1 10
4 0 15 -12 14 -36 -4 -13 -8 -39 -13 -68 -11 -25 1 -46 -1 -46 -4 0 -12 -98
-11 -105 0 -4 6 -18 16 -32 21 -21 8 -24 14 -20 37 5 23 2 28 -14 29 -16 2
-19 -3 -14 -20 5 -17 4 -19 -4 -7 -16 22 -14 27 19 50 20 14 28 16 24 7 -3 -9
3 -16 15 -20 25 -6 29 24 6 43 -8 7 -15 16 -15 21 0 5 7 9 15 9 18 0 20 21 3
38 -9 9 -7 13 8 18 27 11 34 25 22 47 -8 17 -8 19 5 14 13 -5 15 -1 10 23 -3
19 -1 30 5 30 6 0 9 -8 6 -17 -2 -10 1 -8 8 5 9 19 9 25 -2 32 -7 4 -10 15 -6
25 5 14 9 15 21 5 12 -10 15 -9 15 4 0 9 -4 16 -10 16 -5 0 -10 9 -10 20 0 11
-7 20 -15 20 -8 0 -15 5 -15 10 0 12 3 12 24 4 9 -3 16 -12 16 -20 0 -8 6 -14
14 -14 8 0 17 -6 19 -12 3 -7 6 6 6 29 1 24 -4 43 -11 46 -8 3 -5 6 6 6 12 1
16 6 12 17 -3 9 -6 20 -6 25 0 5 -4 9 -10 9 -5 0 -10 -9 -10 -20 0 -13 -5 -18
-15 -14 -8 4 -15 1 -15 -6 0 -10 -3 -10 -15 0 -8 7 -15 18 -15 26 0 7 -7 17
-15 22 -9 4 -18 25 -22 45 -5 35 -4 37 21 37 14 0 25 4 24 9 -2 5 6 17 17 25
18 14 18 15 3 16 -10 0 -18 -4 -18 -9 0 -5 -11 -11 -25 -13 -33 -7 -32 8 0 16
14 4 25 12 24 19 -3 22 1 37 9 35 13 -4 53 23 47 33 -4 5 3 9 14 9 12 0 21 7
21 15 0 8 -9 15 -20 15 -11 0 -20 -4 -20 -10 0 -5 -4 -10 -10 -10 -5 0 -10 7
-10 15 0 8 -4 15 -10 15 -5 0 -10 11 -10 24 0 19 6 25 33 29 17 2 37 1 42 -3
6 -4 20 -10 33 -13 19 -4 21 -3 11 9 -9 12 -6 13 22 10 19 -2 38 -1 44 2 5 3
36 7 69 10 34 2 65 7 71 12 6 5 20 7 32 4 11 -3 24 -1 27 5 10 16 26 13 26 -4z
m-400 -119 c0 -11 -19 -15 -25 -6 -3 5 1 10 9 10 9 0 16 -2 16 -4z m37 -328
c-3 -8 -6 -5 -6 6 -1 11 2 17 5 13 3 -3 4 -12 1 -19z m1030 -374 c-3 -3 -12
-4 -19 -1 -8 3 -5 6 6 6 11 1 17 -2 13 -5z m-1257 -24 c0 -5 7 -7 15 -4 10 4
15 0 15 -14 0 -15 8 -22 27 -24 44 -5 36 -23 -12 -25 -38 -1 -45 1 -45 18 0
10 -7 19 -15 19 -8 0 -15 9 -15 20 0 11 7 20 15 20 8 0 15 -4 15 -10z m340
-80 c12 -8 11 -10 -7 -10 -13 0 -23 5 -23 10 0 13 11 13 30 0z m263 -17 c-7
-2 -19 -2 -25 0 -7 3 -2 5 12 5 14 0 19 -2 13 -5z m640 -35 c28 -14 38 -34 11
-24 -8 3 -22 -1 -30 -9 -9 -8 -29 -15 -45 -15 -24 0 -29 4 -29 24 0 23 8 29
56 35 5 0 22 -5 37 -11z m-28 -88 c3 -5 16 -10 28 -10 15 0 18 -3 10 -11 -12
-12 -123 -2 -123 11 0 17 75 26 85 10z m-567 -46 c14 -4 21 -12 18 -20 -3 -8
-1 -14 4 -14 5 0 14 -9 20 -20 9 -17 8 -19 -7 -13 -17 7 -17 5 0 -21 11 -15
17 -37 14 -47 -3 -10 -1 -19 4 -19 5 0 9 -7 9 -15 0 -8 -4 -15 -9 -15 -15 0
-20 -40 -9 -71 7 -19 15 -28 24 -25 8 3 14 -1 14 -9 0 -8 9 -15 20 -15 13 0
20 -7 20 -20 0 -11 5 -20 11 -20 6 0 9 -7 5 -15 -3 -8 2 -21 10 -30 9 -8 11
-15 4 -15 -6 0 -13 7 -16 15 -9 22 -34 19 -34 -4 0 -23 -30 -37 -42 -19 -5 9
-8 9 -8 2 0 -7 -7 -15 -16 -18 -10 -4 -13 -2 -8 6 5 8 -3 9 -30 5 -25 -4 -34
-2 -30 5 4 6 3 8 -4 5 -24 -16 -37 4 -38 59 0 48 2 55 17 51 15 -4 16 -1 8 20
-12 33 -12 36 6 29 9 -3 15 0 15 8 0 8 -7 17 -16 20 -8 3 -12 11 -8 17 11 18
11 53 0 61 -5 3 -9 20 -8 37 0 17 -4 33 -9 36 -15 10 -10 25 9 25 14 0 15 2 2
10 -10 6 -11 10 -2 10 6 0 12 7 12 15 0 16 12 18 48 9z m-543 -14 c4 -6 -14
-10 -47 -9 -39 0 -48 3 -33 9 28 12 73 12 80 0z m1005 -85 c13 -16 3 -20 -24
-9 -9 3 -13 10 -10 15 8 13 20 11 34 -6z m-919 -25 c5 0 9 -4 9 -10 0 -5 -6
-10 -14 -10 -8 0 -18 -5 -22 -12 -4 -6 -3 -9 2 -6 5 3 18 2 29 -2 13 -4 -9
-12 -70 -23 -81 -15 -107 -15 -94 -2 3 2 30 8 60 13 37 6 53 12 51 22 -5 23 7
42 24 36 9 -3 20 -6 25 -6z m1008 -16 c8 -8 -105 -2 -129 6 -15 6 4 7 50 3 41
-3 77 -7 79 -9z m-248 -9 c19 -8 27 -14 18 -15 -9 0 -30 7 -45 15 -37 19 -17
19 27 0z m-643 -25 c-7 -11 -16 -16 -21 -11 -12 12 0 31 19 31 12 0 12 -3 2
-20z m747 -16 c22 1 50 -1 62 -5 13 -5 25 -4 28 1 4 6 11 10 16 10 6 0 7 -5 3
-11 -5 -8 4 -10 29 -7 20 2 33 0 31 -4 -3 -4 9 -8 26 -8 18 0 29 4 25 10 -11
18 11 11 30 -10 10 -11 21 -17 26 -14 15 9 119 -27 119 -41 0 -7 10 -26 23
-42 13 -15 30 -44 37 -63 8 -19 21 -40 29 -46 15 -12 9 -44 -9 -44 -6 0 -9 3
-6 8 2 4 -7 13 -20 19 -22 10 -24 10 -19 -7 4 -13 -1 -22 -15 -30 -12 -6 -20
-21 -20 -35 0 -14 -6 -25 -12 -26 -57 -4 -63 -3 -69 16 -6 17 -8 15 -14 -12
-4 -18 -13 -33 -21 -33 -7 0 -19 -9 -27 -20 -8 -11 -17 -17 -22 -12 -4 4 -6 0
-3 -8 3 -9 16 -14 32 -13 20 1 25 -1 19 -10 -5 -7 -10 -23 -11 -36 0 -13 -7
-31 -15 -40 -8 -9 -16 -22 -19 -30 -3 -11 -7 -10 -21 4 -15 14 -20 15 -33 4
-16 -13 -115 -13 -124 0 -3 4 -21 18 -40 31 -19 13 -29 17 -22 8 9 -11 10 -22
2 -39 -8 -20 -9 -20 -8 -4 2 11 -1 25 -5 32 -9 14 16 69 33 75 6 2 12 13 12
24 2 18 5 20 29 10 15 -5 27 -12 27 -15 -2 -24 6 -31 38 -31 19 0 33 4 30 9
-3 5 2 8 10 7 25 -2 25 32 1 54 l-21 20 22 0 c16 0 20 4 15 18 -10 26 -46 62
-63 62 -13 0 -13 1 0 10 9 6 10 10 3 10 -6 0 -22 9 -35 20 -67 58 -84 70 -98
70 -22 0 -87 42 -72 47 6 3 12 9 12 15 0 6 -8 7 -17 4 -16 -5 -16 -5 -2 6 18
14 14 37 -10 54 -13 10 -13 14 -2 28 7 9 17 13 22 10 5 -3 12 2 16 12 6 15 7
15 18 1 7 -10 24 -14 50 -13z m-763 -75 c-1 -19 1 -55 6 -81 8 -40 6 -48 -10
-62 -10 -9 -24 -13 -31 -10 -7 4 -9 4 -5 0 7 -8 -70 -86 -85 -86 -10 0 -39
-68 -33 -78 2 -4 -9 -14 -24 -21 -16 -7 -28 -18 -27 -24 1 -7 -12 -13 -30 -15
-19 -2 -33 -9 -33 -17 0 -20 -25 -25 -48 -9 -11 8 -27 11 -35 8 -9 -3 -22 4
-31 18 -15 20 -15 24 -1 34 23 17 18 27 -10 20 -23 -6 -25 -4 -25 28 0 28 -4
35 -26 40 -19 5 -30 2 -39 -11 -12 -16 -14 -15 -13 15 1 33 18 58 18 27 0 -12
5 -15 16 -11 9 3 22 6 30 6 8 0 14 5 14 11 0 7 -9 9 -24 5 -22 -5 -24 -3 -23
30 1 29 4 34 20 30 15 -4 16 -2 6 10 -6 8 -21 14 -33 14 -19 1 -20 1 -3 11 13
8 22 7 34 -3 15 -12 15 -11 5 9 -16 30 -15 37 4 19 28 -29 119 -11 119 23 0 7
10 17 23 22 13 5 22 5 22 -1 0 -6 8 -10 18 -9 12 0 13 2 3 6 -11 5 10 15 124
58 31 12 58 18 87 19 14 1 24 5 21 10 -3 5 0 6 8 4 9 -3 13 -17 11 -39z m-388
-65 c23 -9 20 -23 -4 -17 -11 3 -20 9 -20 14 0 11 3 11 24 3z m660 -32 c-6
-28 -9 -30 -26 -21 -20 11 -20 11 3 34 13 12 25 21 27 20 1 -1 -1 -16 -4 -33z
m331 -52 c4 -6 11 -8 16 -5 5 4 9 1 9 -4 0 -6 -4 -11 -9 -11 -17 0 -41 12 -41
21 0 12 17 11 25 -1z m83 -2 c16 -16 15 -25 -4 -32 -8 -3 -12 -2 -9 3 3 5 1
12 -5 16 -12 7 -13 25 -2 25 4 0 13 -5 20 -12z m657 -96 c-6 -7 -35 18 -35 31
0 5 9 2 20 -8 11 -10 18 -20 15 -23z m-1807 -36 c-7 -8 -15 -12 -17 -11 -5 6
10 25 20 25 5 0 4 -6 -3 -14z m1262 -7 c0 -5 -4 -9 -10 -9 -5 0 -10 7 -10 16
0 8 5 12 10 9 6 -3 10 -10 10 -16z m506 -16 c-10 -10 -19 5 -10 18 6 11 8 11
12 0 2 -7 1 -15 -2 -18z m-852 -93 c20 -7 27 -19 32 -50 5 -28 15 -46 31 -57
l25 -16 -26 -14 c-14 -8 -26 -20 -26 -27 0 -15 -41 -36 -70 -36 -11 0 -20 -4
-20 -10 0 -5 -14 -7 -32 -3 -42 8 -108 40 -108 53 0 6 -8 10 -17 10 -13 0 -12
4 7 13 14 8 41 23 62 35 20 11 39 18 42 15 3 -4 6 -1 6 5 0 5 -4 12 -9 14 -5
2 -11 14 -13 27 -2 20 3 26 32 37 44 16 53 16 84 4z m333 -72 c-3 -8 -6 -5 -6
6 -1 11 2 17 5 13 3 -3 4 -12 1 -19z m-162 -78 c14 0 29 -9 35 -20 8 -16 8
-20 -3 -20 -8 0 -20 7 -27 15 -7 8 -21 15 -31 15 -19 0 -25 11 -12 24 4 4 9 2
11 -3 2 -6 14 -11 27 -11z m80 -49 c3 -5 1 -12 -4 -15 -5 -3 -11 1 -15 9 -6
16 9 21 19 6z m25 -41 c0 -5 -2 -10 -4 -10 -3 0 -8 5 -11 10 -3 6 -1 10 4 10
6 0 11 -4 11 -10z m-313 -117 c4 -9 9 -10 17 -4 6 6 37 12 69 14 44 3 57 1 57
-10 0 -7 7 -16 15 -19 9 -4 15 -19 15 -37 0 -27 1 -29 13 -14 6 10 25 19 41
20 24 2 30 -3 37 -25 4 -16 4 -28 1 -29 -4 0 -18 -3 -32 -5 -14 -2 -49 -4 -78
-4 -39 0 -53 -3 -50 -12 6 -17 50 -15 163 7 50 9 95 17 100 18 6 1 12 -2 15
-8 3 -5 -6 -11 -20 -13 -46 -5 -175 -62 -242 -106 -13 -9 -41 -15 -62 -14 -26
1 -43 -4 -51 -15 -7 -9 -15 -14 -18 -11 -3 4 -26 9 -49 11 -24 3 -50 9 -58 13
-9 5 -53 21 -98 36 -55 18 -79 30 -70 35 9 6 4 9 -14 9 -16 0 -28 5 -28 11 0
8 11 9 33 5 70 -14 137 -18 137 -7 0 6 -8 12 -17 12 -10 1 -25 3 -33 4 -8 1
-28 3 -43 4 -48 2 -50 68 -2 89 24 11 27 10 39 -19 l13 -31 6 31 c4 21 12 31
24 31 14 0 15 2 4 9 -8 5 -10 14 -6 21 6 10 11 9 21 -4 11 -16 13 -16 19 3 5
18 14 20 67 19 40 -1 62 -6 65 -15z m466 -64 c-8 -8 -16 -8 -30 0 -16 9 -14
10 12 11 21 0 26 -3 18 -11z m-789 -44 c-5 -12 -10 -13 -20 -4 -19 15 -18 19
6 19 13 0 18 -5 14 -15z m-946 -64 c29 -12 51 -61 68 -153 7 -41 4 -44 -27
-27 -32 17 -94 13 -141 -9 -67 -31 -81 -34 -75 -18 3 7 0 25 -7 38 -25 47 -28
112 -9 152 16 35 50 55 72 42 5 -4 12 -2 15 3 3 5 15 7 26 4 16 -4 19 -2 14
13 -5 13 0 10 14 -7 12 -15 34 -32 50 -38z m1272 -121 c0 -5 -2 -10 -4 -10 -3
0 -8 5 -11 10 -3 6 -1 10 4 10 6 0 11 -4 11 -10z m264 -189 c4 -5 -3 -7 -14
-4 -23 6 -26 13 -6 13 8 0 17 -4 20 -9z m-329 -21 c3 -5 1 -10 -4 -10 -6 0
-11 5 -11 10 0 6 2 10 4 10 3 0 8 -4 11 -10z m-108 -1490 c-18 -33 -23 -36
-25 -19 -2 11 4 29 14 40 28 32 34 22 11 -21z m593 25 c-7 -8 -17 -15 -22 -15
-6 0 -5 7 2 15 7 8 17 15 22 15 6 0 5 -7 -2 -15z m75 5 c3 -5 -1 -10 -9 -10
-8 0 -18 5 -21 10 -3 6 1 10 9 10 8 0 18 -4 21 -10z"/>
<path d="M2400 4880 c0 -5 5 -10 10 -10 6 0 10 5 10 10 0 6 -4 10 -10 10 -5 0
-10 -4 -10 -10z"/>
<path d="M2280 4802 c0 -4 9 -13 20 -20 11 -7 20 -9 20 -4 0 4 -9 13 -20 20
-11 7 -20 9 -20 4z"/>
<path d="M2320 4720 c0 -5 5 -10 11 -10 5 0 7 5 4 10 -3 6 -8 10 -11 10 -2 0
-4 -4 -4 -10z"/>
<path d="M2260 4679 c0 -5 5 -7 10 -4 6 3 10 8 10 11 0 2 -4 4 -10 4 -5 0 -10
-5 -10 -11z"/>
<path d="M2930 4566 c0 -2 7 -6 15 -10 8 -3 15 -1 15 4 0 6 -7 10 -15 10 -8 0
-15 -2 -15 -4z"/>
<path d="M2978 4523 c6 -2 18 -2 25 0 6 3 1 5 -13 5 -14 0 -19 -2 -12 -5z"/>
<path d="M2966 4465 c4 -8 11 -15 16 -15 6 0 5 6 -2 15 -7 8 -14 15 -16 15 -2
0 -1 -7 2 -15z"/>
<path d="M3040 4370 c0 -6 7 -10 15 -10 8 0 15 2 15 4 0 2 -7 6 -15 10 -8 3
-15 1 -15 -4z"/>
<path d="M2990 4311 c0 -5 7 -12 16 -15 14 -5 15 -4 4 9 -14 17 -20 19 -20 6z"/>
<path d="M3015 4260 c3 -5 8 -10 11 -10 2 0 4 5 4 10 0 6 -5 10 -11 10 -5 0
-7 -4 -4 -10z"/>
<path d="M2220 4220 c0 -5 5 -10 10 -10 6 0 10 5 10 10 0 6 -4 10 -10 10 -5 0
-10 -4 -10 -10z"/>
<path d="M2175 4160 c-3 -5 3 -10 14 -10 12 0 21 5 21 10 0 6 -6 10 -14 10 -8
0 -18 -4 -21 -10z"/>
<path d="M2520 4110 c0 -5 5 -10 10 -10 6 0 10 5 10 10 0 6 -4 10 -10 10 -5 0
-10 -4 -10 -10z"/>
<path d="M2695 3710 c-3 -5 -1 -10 4 -10 6 0 11 5 11 10 0 6 -2 10 -4 10 -3 0
-8 -4 -11 -10z"/>
<path d="M2770 3566 c0 -12 3 -25 6 -29 7 -7 44 14 44 26 0 4 -4 5 -10 2 -5
-3 -10 -2 -10 3 0 6 -7 12 -15 16 -11 4 -15 -1 -15 -18z"/>
<path d="M3327 3385 c-4 -8 -2 -17 4 -21 12 -7 41 15 33 27 -8 14 -31 11 -37
-6z"/>
<path d="M2068 3543 c6 -2 18 -2 25 0 6 3 1 5 -13 5 -14 0 -19 -2 -12 -5z"/>
<path d="M2780 3209 c0 -6 5 -20 11 -31 8 -15 8 -22 -1 -28 -7 -4 -9 -16 -5
-29 3 -12 11 -19 16 -15 5 3 7 10 4 15 -11 16 7 10 22 -8 12 -16 13 -13 9 27
-3 25 -5 46 -5 47 -1 1 -8 9 -17 17 -18 18 -34 21 -34 5z"/>
<path d="M2755 2831 c-8 -14 5 -62 16 -55 12 7 12 51 0 59 -5 3 -12 1 -16 -4z"/>
<path d="M2856 2818 c-3 -13 -1 -27 4 -32 7 -7 10 -4 10 6 0 9 3 23 6 32 3 9
2 16 -4 16 -5 0 -12 -10 -16 -22z"/>
<path d="M2658 2805 c5 -29 22 -34 22 -6 0 11 6 22 13 24 6 3 0 6 -14 6 -23 1
-26 -2 -21 -24z"/>
<path d="M4463 5798 c-21 -27 -22 -74 -2 -107 10 -17 19 -40 19 -51 0 -17 7
-20 39 -20 22 0 42 4 45 9 3 5 31 26 62 46 48 32 94 84 94 108 0 4 -15 7 -34
7 -19 0 -38 5 -41 10 -9 15 -170 13 -182 -2z"/>
<path d="M4055 5447 c-56 -26 -61 -41 -34 -100 13 -29 32 -58 41 -65 10 -7 18
-19 18 -26 0 -7 12 -18 26 -25 22 -9 30 -8 55 10 16 11 29 24 29 29 0 5 20 32
45 60 47 53 51 76 19 109 -19 20 -160 26 -199 8z"/>
<path d="M196 5215 c-20 -30 -20 -51 -1 -59 8 -3 15 -12 15 -19 0 -8 -7 -20
-15 -27 -19 -16 -21 -57 -2 -43 6 6 35 10 63 10 28 0 65 8 83 17 17 10 40 14
51 11 26 -8 35 12 19 43 -23 45 -34 51 -100 54 -55 3 -64 6 -61 21 4 26 -33
21 -52 -8z"/>
<path d="M4990 4275 c-14 -7 -37 -16 -52 -20 -35 -7 -63 -60 -71 -132 -3 -29
-13 -65 -21 -82 -9 -16 -16 -41 -16 -54 0 -14 -9 -45 -20 -69 -14 -33 -21 -76
-25 -153 -2 -59 -9 -113 -14 -119 -6 -7 -15 -42 -20 -78 -11 -80 -43 -133
-102 -173 -90 -60 -107 -87 -73 -115 8 -8 21 -28 29 -46 7 -18 28 -49 46 -68
29 -33 37 -36 85 -36 29 0 56 -4 59 -10 25 -41 83 42 70 101 -6 27 -2 35 30
64 l37 34 -25 33 c-14 18 -28 49 -32 68 -4 19 -14 44 -21 55 -22 33 -19 133 4
186 18 42 26 49 77 68 30 12 62 21 70 21 13 0 15 40 15 270 0 149 -1 270 -2
270 -2 0 -14 -7 -28 -15z"/>
</g>
</svg>
