<svg width="124" height="133" viewBox="0 0 124 133" fill="none" xmlns="http://www.w3.org/2000/svg">
<rect y="0.506836" width="123.101" height="132" rx="20" fill="#333333"/>
<path d="M47.9549 103.507H74.8535M61.4042 91.9696V71.7795M61.4042 71.7795L50.6448 60.2423M61.4042 71.7795L72.1636 60.2423M44.828 80.0719C41.6257 77.4019 39.0321 73.9855 37.2437 70.0814C35.4553 66.1772 34.5189 61.8879 34.5057 57.5382C34.4384 41.8909 46.1729 28.8755 60.7654 28.5149C66.413 28.3714 71.9593 30.1381 76.6179 33.5645C81.2765 36.9909 84.8107 41.9031 86.7195 47.6044C88.6282 53.3057 88.8145 59.5066 87.252 65.3278C85.6894 71.149 82.4573 76.295 78.0141 80.0358C77.0326 80.8493 76.2375 81.8928 75.6897 83.0863C75.1419 84.2798 74.8559 85.5919 74.8535 86.9221V89.0853C74.8535 89.8503 74.5701 90.5839 74.0657 91.1248C73.5612 91.6657 72.877 91.9696 72.1636 91.9696H50.6448C49.9314 91.9696 49.2472 91.6657 48.7428 91.1248C48.2383 90.5839 47.9549 89.8503 47.9549 89.0853V86.9221C47.9465 85.6018 47.6611 84.3006 47.1198 83.1147C46.5785 81.9289 45.7952 80.8889 44.828 80.0719Z" stroke="white" stroke-width="3" stroke-linecap="round" stroke-linejoin="round"/>
</svg>
