<svg width="133" height="133" viewBox="0 0 133 133" fill="none" xmlns="http://www.w3.org/2000/svg">
<rect x="0.101074" y="0.506836" width="132" height="132" rx="20" fill="#333333"/>
<path d="M66.1011 99.3152C72.5508 99.3152 83.2332 99.2331 95.4878 92.0098C107.742 84.7864 111.733 75.7983 112.983 71.1606C113.098 70.7428 113.129 70.3057 113.076 69.8753C113.022 69.4449 112.884 69.0299 112.669 68.6548C112.455 68.2797 112.169 67.9523 111.828 67.6918C111.487 67.4313 111.099 67.2432 110.685 67.1385C107.742 66.3587 102.583 65.661 95.9715 67.2616M66.1011 99.3152C59.6513 99.3152 48.9689 99.1921 36.7144 92.0098C24.4598 84.8275 20.469 75.7983 19.2194 71.1606C19.1043 70.7428 19.0728 70.3057 19.1266 69.8753C19.1804 69.4449 19.3186 69.0299 19.5328 68.6548C19.7471 68.2797 20.0331 67.9523 20.374 67.6918C20.7148 67.4313 21.1036 67.2432 21.5171 67.1385C24.4598 66.3587 29.6196 65.661 36.2306 67.2206M66.1011 99.3152C66.1011 99.3152 82.2255 90.3681 82.2255 66.4818C82.2255 47.7668 72.309 38.2451 68.036 34.9618C67.4752 34.5417 66.7973 34.3152 66.1011 34.3152C65.4049 34.3152 64.7269 34.5417 64.1661 34.9618C59.8932 38.2451 49.9767 47.7668 49.9767 66.4818C49.9767 90.3681 66.1011 99.3152 66.1011 99.3152ZM66.1011 99.3152C70.9384 98.2481 83.9588 90.7785 91.7792 76.9885C99.5995 63.1985 97.6646 52.2403 96.1328 47.4385C95.8985 46.6662 95.386 46.0127 94.6981 45.6093C94.0102 45.2058 93.1978 45.0822 92.4241 45.2632C87.7957 46.3186 83.466 48.4385 79.7665 51.4605M66.1011 99.3152C61.2638 98.2481 48.2433 90.7375 40.423 76.9885C32.6026 63.2395 34.5376 52.2403 36.0694 47.4385C36.3037 46.6662 36.8162 46.0127 37.5041 45.6093C38.192 45.2058 39.0043 45.0822 39.778 45.2632C44.4064 46.3186 48.7362 48.4385 52.4356 51.4605" stroke="white" stroke-width="3" stroke-linecap="round" stroke-linejoin="round"/>
</svg>
