<?xml version="1.0" encoding="UTF-8"?>
<!DOCTYPE svg PUBLIC "-//W3C//DTD SVG 1.1//EN" "http://www.w3.org/Graphics/SVG/1.1/DTD/svg11.dtd">
<svg xmlns="http://www.w3.org/2000/svg" version="1.1" width="155px" height="100px" style="shape-rendering:geometricPrecision; text-rendering:geometricPrecision; image-rendering:optimizeQuality; fill-rule:evenodd; clip-rule:evenodd" xmlns:xlink="http://www.w3.org/1999/xlink">
<g><path style="opacity:0.922" fill="#fefffe" d="M 0.5,-0.5 C 2.5,-0.5 4.5,-0.5 6.5,-0.5C 6.98672,0.473444 7.48672,1.47344 8,2.5C 8.66667,33.8333 8.66667,65.1667 8,96.5C 7.48672,97.5266 6.98672,98.5266 6.5,99.5C 4.83333,99.5 3.16667,99.5 1.5,99.5C 1.16667,98.5 0.5,97.8333 -0.5,97.5C -0.5,65.5 -0.5,33.5 -0.5,1.5C 0.338246,1.15829 0.67158,0.491622 0.5,-0.5 Z"/></g>
<g><path style="opacity:0.895" fill="#fefffe" d="M 15.5,-0.5 C 17.1667,-0.5 18.8333,-0.5 20.5,-0.5C 27.6556,11.1388 34.8223,22.8054 42,34.5C 49.1777,22.8054 56.3444,11.1388 63.5,-0.5C 65.5,-0.5 67.5,-0.5 69.5,-0.5C 70.9869,2.91333 70.8203,6.24667 69,9.5C 61.3333,22.1667 53.6667,34.8333 46,47.5C 43.3333,50.1667 40.6667,50.1667 38,47.5C 30.7307,34.5705 23.064,21.9038 15,9.5C 12.8723,5.97518 13.0389,2.64185 15.5,-0.5 Z"/></g>
<g><path style="opacity:0.921" fill="#fefffe" d="M 77.5,-0.5 C 79.5,-0.5 81.5,-0.5 83.5,-0.5C 84.6587,32.0951 84.8254,64.7618 84,97.5C 83.2828,98.0442 82.7828,98.7109 82.5,99.5C 80.8333,99.5 79.1667,99.5 77.5,99.5C 77.0133,98.5266 76.5133,97.5266 76,96.5C 75.3333,65.1667 75.3333,33.8333 76,2.5C 76.5133,1.47344 77.0133,0.473444 77.5,-0.5 Z"/></g>
<g><path style="opacity:0.923" fill="#fefffe" d="M 103.5,-0.5 C 119.833,-0.5 136.167,-0.5 152.5,-0.5C 152.932,0.709515 153.599,1.70951 154.5,2.5C 154.5,3.83333 154.5,5.16667 154.5,6.5C 153.733,7.17197 153.066,8.0053 152.5,9C 138.592,9.17588 124.758,9.67588 111,10.5C 110.5,36.4979 110.333,62.4979 110.5,88.5C 124.171,88.3334 137.837,88.5001 151.5,89C 152.636,90.1451 153.636,91.3117 154.5,92.5C 154.5,93.5 154.5,94.5 154.5,95.5C 153.512,96.795 152.512,98.1283 151.5,99.5C 135.833,99.5 120.167,99.5 104.5,99.5C 103.531,98.6906 102.698,97.6906 102,96.5C 101.333,65.1667 101.333,33.8333 102,2.5C 102.513,1.47344 103.013,0.473444 103.5,-0.5 Z"/></g>
<g><path style="opacity:0.873" fill="#fefffe" d="M 119.5,17.5 C 128.839,17.3335 138.173,17.5002 147.5,18C 151.5,21.3333 151.5,24.6667 147.5,28C 140.508,28.4996 133.508,28.6663 126.5,28.5C 126.5,33.5 126.5,38.5 126.5,43.5C 130.514,43.3345 134.514,43.5012 138.5,44C 142.994,46.467 143.66,49.8003 140.5,54C 135.845,54.4992 131.179,54.6658 126.5,54.5C 126.5,59.8333 126.5,65.1667 126.5,70.5C 133.508,70.3337 140.508,70.5004 147.5,71C 151.566,74.7448 151.233,78.0782 146.5,81C 137.833,81.6667 129.167,81.6667 120.5,81C 119.584,80.6258 118.75,80.1258 118,79.5C 116.372,60.5653 116.038,41.5653 117,22.5C 117.366,20.5483 118.199,18.8816 119.5,17.5 Z"/></g>
<g><path style="opacity:0.909" fill="#fefffe" d="M 67.5,99.5 C 65.8333,99.5 64.1667,99.5 62.5,99.5C 62.2172,98.7109 61.7172,98.0442 61,97.5C 60.6667,83.8333 60.3333,70.1667 60,56.5C 55.0822,64.0001 50.4155,71.6667 46,79.5C 43.3333,82.1667 40.6667,82.1667 38,79.5C 33.3333,71.5 28.6667,63.5 24,55.5C 23.6667,69.5 23.3333,83.5 23,97.5C 22.2828,98.0442 21.7828,98.7109 21.5,99.5C 19.8333,99.5 18.1667,99.5 16.5,99.5C 16.0133,98.5266 15.5133,97.5266 15,96.5C 14.3333,76.5 14.3333,56.5 15,36.5C 17.8184,32.5764 20.8184,32.5764 24,36.5C 30,46.5 36,56.5 42,66.5C 48.5842,56.3337 54.9176,46.0003 61,35.5C 63.459,32.8997 65.959,32.8997 68.5,35.5C 69.6545,55.79 69.8212,76.1233 69,96.5C 68.4867,97.5266 67.9867,98.5266 67.5,99.5 Z"/></g>
</svg>
