<?xml version="1.0" encoding="UTF-8"?>
<!DOCTYPE svg PUBLIC "-//W3C//DTD SVG 1.1//EN" "http://www.w3.org/Graphics/SVG/1.1/DTD/svg11.dtd">
<svg xmlns="http://www.w3.org/2000/svg" version="1.1" width="618px" height="57px" style="shape-rendering:geometricPrecision; text-rendering:geometricPrecision; image-rendering:optimizeQuality; fill-rule:evenodd; clip-rule:evenodd" xmlns:xlink="http://www.w3.org/1999/xlink">
<g><path style="opacity:0.862" fill="#fefffe" d="M -0.5,-0.5 C 1.16667,-0.5 2.83333,-0.5 4.5,-0.5C 5.83333,18.5 5.83333,37.5 4.5,56.5C 2.83333,56.5 1.16667,56.5 -0.5,56.5C -0.5,37.5 -0.5,18.5 -0.5,-0.5 Z"/></g>
<g><path style="opacity:0.805" fill="#fefffe" d="M 8.5,-0.5 C 10.1667,-0.5 11.8333,-0.5 13.5,-0.5C 17.4441,5.951 21.6108,12.2843 26,18.5C 30.6845,12.4521 34.8512,6.11878 38.5,-0.5C 40.1667,-0.5 41.8333,-0.5 43.5,-0.5C 44.4731,1.06831 44.6397,2.73498 44,4.5C 40.0842,9.99642 36.4175,15.6631 33,21.5C 31.2793,24.2972 29.1126,26.6305 26.5,28.5C 24.9707,28.4712 23.804,27.8045 23,26.5C 17.6363,18.6345 12.4696,10.6345 7.5,2.5C 8.12723,1.58317 8.46056,0.583168 8.5,-0.5 Z"/></g>
<g><path style="opacity:0.858" fill="#fefffe" d="M 47.5,-0.5 C 49.1667,-0.5 50.8333,-0.5 52.5,-0.5C 53.8333,18.5 53.8333,37.5 52.5,56.5C 50.8333,56.5 49.1667,56.5 47.5,56.5C 47.5,37.5 47.5,18.5 47.5,-0.5 Z"/></g>
<g><path style="opacity:0.9" fill="#fefffe" d="M 354.5,-0.5 C 365.5,-0.5 376.5,-0.5 387.5,-0.5C 387.739,1.4672 387.406,3.30054 386.5,5C 377.84,5.49975 369.173,5.66642 360.5,5.5C 360.5,20.5 360.5,35.5 360.5,50.5C 369.173,50.3336 377.84,50.5002 386.5,51C 387.406,52.6995 387.739,54.5328 387.5,56.5C 376.5,56.5 365.5,56.5 354.5,56.5C 354.5,37.5 354.5,18.5 354.5,-0.5 Z"/></g>
<g><path style="opacity:0.824" fill="#fefffe" d="M 90.5,56.5 C 88.8333,56.5 87.1667,56.5 85.5,56.5C 84.7681,48.8667 84.2681,41.2 84,33.5C 79.5182,26.0356 75.6849,18.2023 72.5,10C 73.5062,6.83065 75.5062,5.99732 78.5,7.5C 81.5785,13.9913 84.9118,20.3246 88.5,26.5C 91.8902,20.7242 95.0569,14.7242 98,8.5C 99.7328,6.3985 101.733,6.06516 104,7.5C 104.484,9.91291 104.15,12.2462 103,14.5C 99.3671,21.4802 95.7005,28.4802 92,35.5C 91.7973,42.5793 91.2973,49.5793 90.5,56.5 Z"/></g>
<g><path style="opacity:0.846" fill="#fefffe" d="M 215.5,56.5 C 210.833,56.5 206.167,56.5 201.5,56.5C 196.604,53.4193 193.104,49.0859 191,43.5C 188.314,33.0836 189.314,23.0836 194,13.5C 202.415,5.14557 211.581,4.31224 221.5,11C 224.263,14.3612 226.097,18.1945 227,22.5C 228.608,32.3051 227.274,41.6385 223,50.5C 220.886,53.1208 218.386,55.1208 215.5,56.5 Z M 204.5,13.5 C 213.567,12.3953 218.734,16.3953 220,25.5C 221.945,34.5633 219.778,42.3967 213.5,49C 208.054,51.6179 203.554,50.4512 200,45.5C 195.852,36.9796 195.518,28.3129 199,19.5C 200.36,16.9774 202.193,14.9774 204.5,13.5 Z"/></g>
<g><path style="opacity:0.805" fill="#fefffe" d="M 287.5,56.5 C 285.5,56.5 283.5,56.5 281.5,56.5C 275.331,44.8287 269.164,33.1621 263,21.5C 262.812,33.2423 262.312,44.909 261.5,56.5C 259.833,56.5 258.167,56.5 256.5,56.5C 255.016,40.1443 255.183,23.811 257,7.5C 259.592,6.01832 261.925,6.35166 264,8.5C 269.411,19.6567 275.078,30.6567 281,41.5C 281.333,30.8333 281.667,20.1667 282,9.5C 283.037,6.61624 284.871,5.94957 287.5,7.5C 288.819,23.8333 288.819,40.1666 287.5,56.5 Z"/></g>
<g><path style="opacity:0.822" fill="#fefffe" d="M 427.5,56.5 C 425.5,56.5 423.5,56.5 421.5,56.5C 416.127,42.8772 411.627,28.8772 408,14.5C 407.333,12.1667 407.333,9.83333 408,7.5C 410.776,5.86029 412.776,6.52696 414,9.5C 417.49,21.7945 420.824,34.1278 424,46.5C 427.964,33.9852 431.631,21.3186 435,8.5C 437,5.83333 439,5.83333 441,8.5C 437.754,24.8109 433.254,40.8109 427.5,56.5 Z"/></g>
<g><path style="opacity:0.82" fill="#fefffe" d="M 498.5,56.5 C 496.833,56.5 495.167,56.5 493.5,56.5C 491.572,52.7146 490.238,48.7146 489.5,44.5C 483.824,44.3339 478.157,44.5006 472.5,45C 470.864,48.7434 469.53,52.5768 468.5,56.5C 466.833,56.5 465.167,56.5 463.5,56.5C 463.322,55.3052 462.989,54.1385 462.5,53C 466.912,37.4309 471.912,22.0975 477.5,7C 481.475,5.62063 484.309,6.7873 486,10.5C 490.51,24.694 495.01,38.8607 499.5,53C 498.663,54.0113 498.33,55.1779 498.5,56.5 Z M 480.5,16.5 C 482.906,23.2149 485.239,30.0482 487.5,37C 483.179,37.499 478.846,37.6657 474.5,37.5C 476.037,30.3499 478.037,23.3499 480.5,16.5 Z"/></g>
<g><path style="opacity:0.876" fill="#fefffe" d="M 557.5,56.5 C 555.5,56.5 553.5,56.5 551.5,56.5C 545.091,44.6833 538.924,32.6833 533,20.5C 532.813,32.5755 532.313,44.5755 531.5,56.5C 529.833,56.5 528.167,56.5 526.5,56.5C 526.333,40.4965 526.5,24.4965 527,8.5C 529.333,5.83333 531.667,5.83333 534,8.5C 540,19.8333 546,31.1667 552,42.5C 552.333,30.8333 552.667,19.1667 553,7.5C 554.667,6.16667 556.333,6.16667 558,7.5C 558.817,23.9074 558.651,40.2407 557.5,56.5 Z"/></g>
<g><path style="opacity:0.828" fill="#fefffe" d="M 617.5,35.5 C 617.5,39.8333 617.5,44.1667 617.5,48.5C 615.5,51.8333 612.833,54.5 609.5,56.5C 604.833,56.5 600.167,56.5 595.5,56.5C 589.155,52.648 586.821,47.148 588.5,40C 589.833,39.3333 591.167,39.3333 592.5,40C 593.732,43.7981 595.732,47.1314 598.5,50C 605.207,51.9425 609.541,49.6092 611.5,43C 610.692,40.9124 609.692,38.9124 608.5,37C 603.447,35.1524 598.447,33.1524 593.5,31C 586.063,23.945 585.73,16.6116 592.5,9C 600.941,4.79224 608.441,5.9589 615,12.5C 615.601,14.1368 616.101,15.8034 616.5,17.5C 615.415,21.7951 613.248,22.4617 610,19.5C 607.425,12.3092 602.759,10.6425 596,14.5C 593.846,18.0584 594.346,21.2251 597.5,24C 602.58,25.8043 607.58,27.8043 612.5,30C 614.402,31.7297 616.069,33.563 617.5,35.5 Z"/></g>
<g><path style="opacity:0.843" fill="#fefffe" d="M 162.5,56.5 C 160.833,56.5 159.167,56.5 157.5,56.5C 154.696,50.891 151.862,45.2243 149,39.5C 146.181,35.5071 142.347,33.8404 137.5,34.5C 137.5,41.8333 137.5,49.1667 137.5,56.5C 135.5,56.5 133.5,56.5 131.5,56.5C 130.382,41.5321 130.215,26.5321 131,11.5C 131.309,10.2341 131.809,9.06743 132.5,8C 140.167,7.33333 147.833,7.33333 155.5,8C 161.976,12.0817 164.143,17.915 162,25.5C 160.181,30.3357 156.681,33.169 151.5,34C 157.63,39.0751 161.63,45.5751 163.5,53.5C 163.315,54.5837 162.982,55.5837 162.5,56.5 Z M 137.5,13.5 C 142.179,13.3342 146.845,13.5008 151.5,14C 157.062,19.1626 156.729,23.8292 150.5,28C 146.179,28.499 141.846,28.6657 137.5,28.5C 137.5,23.5 137.5,18.5 137.5,13.5 Z"/></g>
<g><path style="opacity:0.835" fill="#fefffe" d="M 365.5,9.5 C 372.09,9.189 378.59,9.52234 385,10.5C 385.825,12.7008 385.325,14.5341 383.5,16C 379.179,16.499 374.846,16.6657 370.5,16.5C 370.5,19.1667 370.5,21.8333 370.5,24.5C 373.518,24.3354 376.518,24.502 379.5,25C 380.833,27 380.833,29 379.5,31C 376.518,31.498 373.518,31.6646 370.5,31.5C 370.5,34.1667 370.5,36.8333 370.5,39.5C 374.846,39.3343 379.179,39.501 383.5,40C 385.602,41.7328 385.935,43.7328 384.5,46C 377.918,46.81 371.418,46.6433 365,45.5C 364.189,33.4242 364.355,21.4242 365.5,9.5 Z"/></g>
<g><path style="opacity:0.818" fill="#fefffe" d="M 42.5,56.5 C 40.8333,56.5 39.1667,56.5 37.5,56.5C 37.6664,48.8261 37.4997,41.1594 37,33.5C 34.3333,37.5 31.6667,41.5 29,45.5C 27.1862,46.7596 25.3529,46.7596 23.5,45.5C 21,41.8333 18.5,38.1667 16,34.5C 15.7648,41.8809 15.2648,49.2142 14.5,56.5C 12.8333,56.5 11.1667,56.5 9.5,56.5C 8.35545,44.5758 8.18878,32.5758 9,20.5C 11.6324,17.8076 13.9658,18.141 16,21.5C 19.3333,26.8333 22.6667,32.1667 26,37.5C 30,31.5 34,25.5 38,19.5C 39.6667,18.1667 41.3333,18.1667 43,19.5C 43.8118,31.9089 43.6452,44.2423 42.5,56.5 Z"/></g>
</svg>
