<svg width="133" height="133" viewBox="0 0 133 133" fill="none" xmlns="http://www.w3.org/2000/svg">
<rect x="0.101074" y="0.506836" width="132" height="132" rx="20" fill="#333333"/>
<path d="M84.0086 52.3767L60.0361 75.2465L48.0702 63.8116M30.1011 56.7464V32.774C30.1011 31.9075 30.4453 31.0765 31.058 30.4638C31.6707 29.8511 32.5017 29.5068 33.3682 29.5068H98.7106C99.5771 29.5068 100.408 29.8511 101.021 30.4638C101.634 31.0765 101.978 31.9075 101.978 32.774V56.7464C101.978 91.0512 72.8595 102.404 67.0604 104.324C66.4016 104.568 65.6772 104.568 65.0184 104.324C59.2193 102.404 30.1011 91.0512 30.1011 56.7464Z" stroke="white" stroke-width="3" stroke-linecap="round" stroke-linejoin="round"/>
</svg>
