<svg width="132" height="132" viewBox="0 0 132 132" fill="none" xmlns="http://www.w3.org/2000/svg">
<rect width="132" height="132" rx="20" fill="#2C2B2B"/>
<path d="M84.375 40.25V80.0821L90.1875 85.9374L96 80.0821V40.25H84.375ZM84.375 36.375H96V28.682H84.375V36.375ZM99.875 44.125V80.8805C99.875 81.3919 99.6728 81.8825 99.3125 82.2454L91.5625 90.0525C90.8048 90.8158 89.5702 90.8158 88.8125 90.0525L81.0625 82.2454C80.7022 81.8825 80.5 81.3919 80.5 80.8805V71.25H78.5625C75.3523 71.25 72.75 68.6476 72.75 65.4375V53.8125C72.75 50.6023 75.3523 48 78.5625 48H80.5V44.125H41.75V73.1875C41.75 74.2575 40.8826 75.125 39.8125 75.125H37.875C31.4547 75.125 26.25 80.3297 26.25 86.75C26.25 93.1703 31.4547 98.375 37.875 98.375H103.75V44.125H99.875ZM99.875 40.25H105.688C106.758 40.25 107.625 41.1174 107.625 42.1875V100.312C107.625 101.383 106.758 102.25 105.688 102.25H37.875C29.3146 102.25 22.375 95.3104 22.375 86.75V42.1875C22.375 32.557 30.182 24.75 39.8125 24.75C40.8826 24.75 41.75 25.6174 41.75 26.6875V40.25H80.5V26.7445C80.5 25.6745 81.3674 24.807 82.4375 24.807H97.9375C99.0076 24.807 99.875 25.6745 99.875 26.7445V40.25ZM80.5 51.875H78.5625C77.4924 51.875 76.625 52.7424 76.625 53.8125V65.4375C76.625 66.5075 77.4924 67.375 78.5625 67.375H80.5V51.875ZM26.25 76.4974C29.0902 73.2795 33.2456 71.25 37.875 71.25V28.7623C31.3024 29.7025 26.25 35.355 26.25 42.1875V76.4974ZM51.4375 48H63.0625C66.2727 48 68.875 50.6023 68.875 53.8125V65.4375C68.875 68.6476 66.2727 71.25 63.0625 71.25H51.4375C48.2273 71.25 45.625 68.6476 45.625 65.4375V53.8125C45.625 50.6023 48.2273 48 51.4375 48ZM51.4375 51.875C50.3674 51.875 49.5 52.7424 49.5 53.8125V65.4375C49.5 66.5075 50.3674 67.375 51.4375 67.375H63.0625C64.1326 67.375 65 66.5075 65 65.4375V53.8125C65 52.7424 64.1326 51.875 63.0625 51.875H51.4375ZM47.5625 82.875C46.4924 82.875 45.625 82.0075 45.625 80.9375C45.625 79.8674 46.4924 79 47.5625 79H74.6875C75.7576 79 76.625 79.8674 76.625 80.9375C76.625 82.0075 75.7576 82.875 74.6875 82.875H47.5625ZM47.5625 90.625C46.4924 90.625 45.625 89.7575 45.625 88.6875C45.625 87.6174 46.4924 86.75 47.5625 86.75H78.5625C79.6326 86.75 80.5 87.6174 80.5 88.6875C80.5 89.7575 79.6326 90.625 78.5625 90.625H47.5625Z" fill="#EEEEEE" fill-opacity="0.7"/>
</svg>
