<svg width="132" height="133" viewBox="0 0 132 133" fill="none" xmlns="http://www.w3.org/2000/svg">
<rect y="0.506836" width="132" height="132" rx="20" fill="#333333"/>
<path d="M112.291 65.3182L102.163 70.7444L89.0408 43.7461L99.2922 38.2317C100.054 37.8139 100.939 37.7372 101.753 38.0181C102.567 38.2991 103.245 38.915 103.639 39.7316L113.726 60.5097C113.931 60.9256 114.056 61.3814 114.094 61.8501C114.133 62.3189 114.084 62.7911 113.95 63.2392C113.816 63.6872 113.601 64.1019 113.316 64.459C113.031 64.816 112.682 65.1082 112.291 65.3182Z" fill="#333333"/>
<path d="M29.9929 70.3032L19.8646 64.833C19.4746 64.6273 19.127 64.3394 18.8425 63.9864C18.5581 63.6334 18.3425 63.2224 18.2086 62.7779C18.0747 62.3335 18.0252 61.8646 18.0632 61.3991C18.1011 60.9337 18.2256 60.4812 18.4294 60.0686L28.5167 39.2905C28.9113 38.4745 29.5865 37.8565 30.3983 37.5681C31.2102 37.2797 32.0947 37.3437 32.8633 37.7464L43.1147 43.2608L29.9929 70.3032Z" fill="#333333"/>
<path d="M102.163 70.7444L95.6017 79.0379L80.5117 95.2722C80.1004 95.6859 79.6021 95.9863 79.0594 96.1477C78.5166 96.309 77.9456 96.3265 77.3953 96.1986L53.6121 89.802C53.1776 89.6717 52.7728 89.4464 52.4229 89.1402L29.9929 70.3032" fill="#333333"/>
<path d="M95.6017 79.0379L77.5593 64.9212L72.3106 69.1562C70.0366 70.9821 67.275 71.9686 64.4375 71.9686C61.6 71.9686 58.8385 70.9821 56.5645 69.1562L54.3502 67.3475C53.9757 67.0412 53.666 66.6529 53.4416 66.2082C53.2171 65.7635 53.083 65.2726 53.0481 64.768C53.0132 64.2633 53.0783 63.7565 53.2392 63.281C53.4 62.8054 53.6529 62.3721 53.9811 62.0096L70.0553 44.7607C70.3572 44.4375 70.7155 44.1815 71.1095 44.0074C71.5035 43.8332 71.9256 43.7445 72.3516 43.7461L89.0408 43.7461" fill="#333333"/>
<path d="M43.3607 43.2608L64.3965 36.6436C65.144 36.413 65.9433 36.4755 66.6518 36.82L80.8397 43.7461" fill="#333333"/>
<path d="M59.5169 105.507L47.1742 102.154C46.6713 102.032 46.2055 101.774 45.821 101.404L36.5538 92.7577" fill="#333333"/>
<path d="M102.163 70.7444L112.291 65.3182C112.682 65.1082 113.031 64.816 113.316 64.459C113.601 64.1019 113.816 63.6872 113.95 63.2392C114.084 62.7911 114.133 62.3189 114.094 61.8501C114.056 61.3814 113.931 60.9256 113.726 60.5097L103.639 39.7316C103.245 38.915 102.567 38.2991 101.753 38.0181C100.939 37.7372 100.054 37.8139 99.2922 38.2317L89.0408 43.7461M102.163 70.7444L89.0408 43.7461M102.163 70.7444L95.6017 79.0379M89.0408 43.7461L72.3516 43.7461C71.9256 43.7445 71.5035 43.8332 71.1095 44.0074C70.7155 44.1815 70.3572 44.4375 70.0553 44.7607L53.9811 62.0096C53.6529 62.3721 53.4 62.8054 53.2392 63.281C53.0783 63.7565 53.0132 64.2633 53.0481 64.768C53.083 65.2726 53.2171 65.7635 53.4416 66.2082C53.666 66.6529 53.9757 67.0412 54.3502 67.3475L56.5645 69.1562C58.8385 70.9821 61.6 71.9686 64.4375 71.9686C67.275 71.9686 70.0366 70.9821 72.3106 69.1562L77.5593 64.9212L95.6017 79.0379M29.9929 70.3032L19.8646 64.833C19.4746 64.6273 19.127 64.3394 18.8425 63.9864C18.5581 63.6334 18.3425 63.2224 18.2086 62.7779C18.0747 62.3335 18.0252 61.8646 18.0632 61.3991C18.1011 60.9337 18.2256 60.4812 18.4294 60.0686L28.5167 39.2905C28.9113 38.4745 29.5865 37.8565 30.3983 37.5681C31.2102 37.2797 32.0947 37.3437 32.8633 37.7464L43.1147 43.2608L29.9929 70.3032ZM29.9929 70.3032L52.4229 89.1402C52.7728 89.4464 53.1776 89.6717 53.6121 89.802L77.3953 96.1986C77.9456 96.3265 78.5166 96.309 79.0594 96.1477C79.6021 95.9863 80.1004 95.6859 80.5117 95.2722L95.6017 79.0379M43.3607 43.2608L64.3965 36.6436C65.144 36.413 65.9433 36.4755 66.6518 36.82L80.8397 43.7461M59.5169 105.507L47.1742 102.154C46.6713 102.032 46.2055 101.774 45.821 101.404L36.5538 92.7577" stroke="white" stroke-width="3" stroke-linecap="round" stroke-linejoin="round"/>
</svg>
